<?xml version="1.0" encoding="UTF-8" standalone="no"?>
<!-- Created with Inkscape (http://www.inkscape.org/) -->

<svg
   xmlns:dc="http://purl.org/dc/elements/1.1/"
   xmlns:cc="http://creativecommons.org/ns#"
   xmlns:rdf="http://www.w3.org/1999/02/22-rdf-syntax-ns#"
   xmlns:svg="http://www.w3.org/2000/svg"
   xmlns="http://www.w3.org/2000/svg"
   xmlns:sodipodi="http://sodipodi.sourceforge.net/DTD/sodipodi-0.dtd"
   xmlns:inkscape="http://www.inkscape.org/namespaces/inkscape"
   width="4251.9683"
   height="2551.1812"
   id="svg3851"
   version="1.1"
   inkscape:version="0.48.5 r10040"
   sodipodi:docname="htmlcsslogos.svg"
   inkscape:export-filename="htmlcsslogos.png"
   inkscape:export-xdpi="41.59"
   inkscape:export-ydpi="41.59">
  <defs
     id="defs3" />
  <sodipodi:namedview
     inkscape:document-units="mm"
     id="base"
     pagecolor="#ffffff"
     bordercolor="#666666"
     borderopacity="1.0"
     inkscape:pageopacity="0.0"
     inkscape:pageshadow="2"
     inkscape:zoom="0.19261668"
     inkscape:cx="2125.9841"
     inkscape:cy="1275.5906"
     inkscape:current-layer="layer1"
     showgrid="false"
     units="mm"
     inkscape:window-width="1280"
     inkscape:window-height="740"
     inkscape:window-x="-8"
     inkscape:window-y="-8"
     inkscape:window-maximized="1" />
  <metadata
     id="metadata4">
    <rdf:RDF>
      <cc:Work
         rdf:about="">
        <dc:format>image/svg+xml</dc:format>
        <dc:type
           rdf:resource="http://purl.org/dc/dcmitype/StillImage" />
        <dc:title></dc:title>
      </cc:Work>
    </rdf:RDF>
  </metadata>
  <g
     inkscape:label="Layer 1"
     inkscape:groupmode="layer"
     id="layer1"
     transform="translate(0,1498.8193)"
     style="display:inline">
    <path
       sodipodi:nodetypes="cccccc"
       inkscape:connector-curvature="0"
       id="path5037"
       d="m 3939.7676,-772.81275 -82.4914,945.11863 -381.8939,102.32816 0,-76.40225 0,-973.40157 z"
       style="fill:#eab332;fill-opacity:1;stroke:none" />
    <path
       style="fill:#0084c4;fill-opacity:1;stroke:none"
       d="m 343.20429,-771.1133 932.76591,0 -73.1533,945.36523 L 811.00873,279.23661 432.45069,177.80226 z"
       id="path4446"
       inkscape:connector-curvature="0"
       sodipodi:nodetypes="cccccc" />
    <path
       inkscape:connector-curvature="0"
       id="path4448"
       d="m 798.26293,-688.90769 394.61077,0 -67.5039,817.40107 -324.20797,90.774 m 0,0 -313.24395,-87.70425 -84.26555,-820.47082 394.6106,0 z"
       style="fill:#2bb9e9;fill-opacity:1;stroke:#0084c5;stroke-width:6.04472303;stroke-miterlimit:4;stroke-opacity:1;stroke-dasharray:none"
       sodipodi:nodetypes="ccccccccc" />
    <path
       style="fill:#0084c5;fill-opacity:1;fill-rule:nonzero;stroke:#0084c5;stroke-width:2.3222034;stroke-miterlimit:4;stroke-opacity:1;stroke-dasharray:none"
       d="M 643.40179,170.97602 C 502.769,131.32792 493.41408,128.36827 491.81993,123.0198 c -1.32981,-4.46137 -83.34984,-799.92644 -83.20025,-806.9107 0.0178,-0.95868 86.84004,-1.74305 192.93211,-1.74305 l 192.89482,0 0,61.94033 0,61.94033 -149.90021,-1.26955 c -102.06087,-0.8644 -149.90011,-0.50632 -149.90011,1.12284 0,3.10188 11.35108,95.87355 12.94084,105.76434 l 1.21399,7.55314 143.4037,0.0604 143.40382,0.0604 -138.28004,57.97339 c -91.21761,38.24266 -138.01516,58.98577 -137.50199,60.94785 0.42771,1.6359 2.76558,22.32199 5.19483,45.96901 2.42929,23.64702 5.01926,47.43936 5.75553,52.8718 l 1.33865,9.87711 78.29372,0.004 c 43.06156,0.002 102.6089,0.69284 132.32748,1.53318 l 54.03375,1.52784 0,90.26615 c 0,49.64634 -0.78436,90.249889 -1.74295,90.230088 -0.95869,-0.01781 -30.50299,-7.713222 -65.65399,-17.096505 l -63.91088,-17.060464 -1.64783,-13.696953 c -0.90633,-7.532702 -2.31047,-26.884896 -3.12037,-43.004286 l -1.47264,-29.30787 -60.39486,-1.68751 c -33.21719,-0.92813 -60.89899,-1.18334 -61.51512,-0.56744 -2.10268,2.10268 19.81425,174.307596 22.38691,175.897599 1.39931,0.864835 55.30307,17.692987 119.78612,37.395975 l 117.24195,35.82368 0.0174,62.167856 c 0.0109,34.19235 -0.76253,62.04751 -1.72123,61.90038 -0.95869,-0.14706 -69.19026,-19.28261 -151.62584,-42.5234 l 9.5e-4,0 z"
       id="path4976"
       inkscape:connector-curvature="0" />
    <path
       style="fill:#0084c5;fill-opacity:1;fill-rule:nonzero;stroke:#0084c5;stroke-width:2.3222034;stroke-miterlimit:4;stroke-opacity:1;stroke-dasharray:none"
       d="m 622.70232,228.06096 c -123.5505,-33.2706 -187.47251,-51.4975 -188.68646,-53.80261 -1.00978,-1.91732 -21.26279,-212.126085 -45.00673,-467.13065 -23.74387,-255.00456 -43.65182,-466.52053 -44.23976,-470.03562 l -1.06902,-6.39129 465.64288,0 465.64307,0 -1.1456,14.52535 c -0.63,7.98878 -17.0133,219.7114 -36.4073,470.4945 -19.3942,250.783158 -35.8514,456.55881 -36.5719,457.27918 -0.9641,0.96411 -365.672,99.28169 -387.82273,104.54879 -1.91729,0.45614 -87.56869,-21.81354 -190.33645,-49.48765 l 0,0 z m 355.34293,-61.17523 c 78.61045,-21.94185 143.32115,-40.1977 143.80175,-40.56859 0.6934,-0.53538 67.3576,-798.19069 67.6159,-809.04602 0.053,-2.30139 -40.2546,-2.90507 -193.98742,-2.90507 l -194.05687,0 0,61.58692 c 0,57.02138 -0.30121,61.60308 -4.06702,61.80592 -2.23685,0.12041 -70.16999,0.0302 -150.96245,-0.19905 -80.79247,-0.22988 -147.80511,0.14463 -148.91689,0.83149 -1.1122,0.68734 -0.22504,15.67399 1.97165,33.31629 2.19622,17.63673 5.26935,42.77852 6.82914,55.87051 l 2.836,23.80377 143.12323,0.59889 143.12328,0.59889 -71.91851,30.0815 c -106.66516,44.61508 -198.86732,84.30456 -200.95778,86.50463 -1.6681,1.75546 7.95682,100.19989 10.47136,107.10207 0.82496,2.26449 23.79716,2.90507 104.18328,2.90507 56.71878,0 117.40881,0.68504 134.86685,1.52229 l 31.74194,1.52228 0,91.7101 0,91.710059 -5.22906,-1.301182 c -2.87598,-0.715667 -34.1453,-8.904804 -69.48749,-18.198072 l -64.25843,-16.896955 -1.3385,-10.542312 c -0.73621,-5.798304 -2.04206,-24.660848 -2.90188,-41.916818 -0.92417,-18.54774 -2.61023,-32.07253 -4.12405,-33.08187 -1.40838,-0.93913 -28.44462,-1.7235 -60.08055,-1.74305 l -57.51982,-0.0362 0,7.79155 c 0,14.89337 19.39821,163.443471 21.63518,165.680378 0.74022,0.740275 58.25227,18.713239 155.64241,48.639515 43.75862,13.446256 81.02615,23.70502 83.38944,22.954948 4.07831,-1.294408 4.27275,1.605954 4.27275,63.709389 l 0,65.0655 15.68728,-4.49152 c 8.62795,-2.4703 80.00472,-22.44382 158.61528,-44.38567 z m -179.67783,33.49091 c -0.58199,-2.22198 -1.03647,0.14329 -1.01072,5.25617 0.0239,5.11289 0.5015,6.93082 1.05765,4.03997 0.55592,-2.89088 0.53474,-7.07416 -0.0489,-9.29614 l 0,0 z M 501.61839,130.77701 c -1.91732,-0.70496 -5.31623,-2.87613 -7.5531,-4.82477 -3.6525,-3.18185 -4.06705,-3.1683 -4.06705,0.13307 0,3.53755 4.28036,5.70635 11.62015,5.88758 3.09872,0.0762 3.09872,-0.0544 0,-1.19566 l 0,-7e-5 z"
       id="path4978"
       inkscape:connector-curvature="0" />
    <path
       style="fill:#0084c5;fill-opacity:1;fill-rule:nonzero;stroke:#0084c5;stroke-width:2.3222034;stroke-miterlimit:4;stroke-opacity:1;stroke-dasharray:none"
       d="m 752.61391,263.5149 c -89.07889,-23.68581 -287.7043,-77.40385 -304.5601,-82.36807 l -15.21796,-4.48176 -5.1942,-54.07513 c -11.00935,-114.614489 -84.0575,-889.69208 -84.0575,-891.89226 0,-1.53729 157.31018,-2.32082 465.96862,-2.32082 371.39313,0 465.96873,0.58981 465.96873,2.90707 0,4.08781 -33.8866,441.00979 -54.6579,704.739643 -9.563,121.419016 -17.3871,224.693167 -17.3871,229.498277 0,4.80507 -0.6196,8.7365 -1.3767,8.7365 -0.7571,0 -86.7752,22.93658 -191.1517,50.97019 -104.37629,28.03363 -192.38971,51.52281 -195.58526,52.19818 -3.37597,0.71354 -29.66497,-5.1149 -62.74893,-13.91182 l 0,0 z m 211.48711,-93.88756 c 83.72328,-23.37146 153.38738,-43.656 154.80908,-45.07665 2.5938,-2.59202 70.3436,-804.26571 68.1538,-806.45543 -0.5982,-0.5983 -87.3514,-1.42043 -192.78532,-1.82737 l -191.69782,-0.73979 -1.16215,61.58685 -1.16193,61.58693 -118.52572,-0.90205 c -65.18913,-0.49606 -133.44556,-0.11618 -151.68089,0.84426 l -33.15524,1.74632 1.56966,15.42395 c 0.86332,8.4832 3.7739,33.20278 6.46793,54.93255 l 4.89828,39.50852 143.56079,1.16205 143.56081,1.16198 -93.6332,39.37944 c -108.12192,45.47297 -176.44725,75.16904 -179.26813,77.91486 -1.80122,1.75326 6.68251,96.76299 9.23394,103.41191 1.34153,3.49606 68.68393,5.7363 185.62087,6.17496 43.45402,0.16284 80.319,0.79974 81.92215,1.4149 4.25178,1.63155 4.26145,184.227034 0.0109,184.204278 -4.29806,-0.02422 -134.54381,-34.401194 -136.05381,-35.911137 -0.71016,-0.710148 -2.69934,-19.780987 -4.42037,-42.379631 -1.72107,-22.59863 -3.56599,-41.52518 -4.0998,-42.05899 -0.53356,-0.53356 -27.302,-1.54304 -59.48484,-2.24279 l -58.51424,-1.27219 1.57562,14.87853 c 3.09741,29.24829 17.57414,141.2807986 19.37802,149.9630642 l 1.83844,8.8483488 54.52706,17.085692 C 707.88007,60.910814 774.84024,80.905153 789.6226,83.9584 l 14.12128,2.916689 0,31.703971 c 0,50.40602 2.67297,95.54474 5.59457,94.47326 1.39677,-0.51239 71.04048,-20.0535 154.76366,-43.42498 l 4.3e-4,0 z"
       id="path4980"
       inkscape:connector-curvature="0" />
    <path
       sodipodi:nodetypes="cccccc"
       inkscape:connector-curvature="0"
       id="path5007"
       d="m 1517.0654,-1012.5353 1243.8616,0 -97.5511,1260.66352 -522.4841,139.99914 -504.8147,-135.2647 z"
       style="fill:#0084c4;fill-opacity:1;stroke:none" />
    <path
       sodipodi:nodetypes="ccccccccc"
       style="fill:#f67b37;fill-opacity:1;stroke:none"
       d="m 2123.8953,-902.91271 526.2215,0 -90.0181,1090.02095 -432.3377,121.04897 m 0,0 -417.7172,-116.95539 -112.3698,-1094.11453 526.2213,0 z"
       id="path5009"
       inkscape:connector-curvature="0" />
    <path
       inkscape:connector-curvature="0"
       id="path5011"
       d="m 1917.3846,243.75963 c -187.5365,-52.87149 -200.0116,-56.81823 -202.1373,-63.95057 -1.7734,-5.94925 -111.1487,-1066.718 -110.9492,-1076.03169 0.025,-1.27848 115.8027,-2.32437 257.2789,-2.32437 l 257.2291,0 0,82.5987 0,82.59871 -199.895,-1.69303 c -136.1003,-1.15274 -199.8948,-0.67533 -199.8948,1.4973 0,4.13647 15.1369,127.84934 17.2567,141.03894 l 1.619,10.07226 191.2315,0.0811 191.2321,0.0804 -184.3991,77.30868 c -121.6407,50.99736 -184.0461,78.65868 -183.3619,81.27514 0.5705,2.18153 3.688,29.76688 6.9274,61.30067 3.2396,31.53374 6.6934,63.2613 7.6753,70.50556 l 1.785,13.17131 104.4062,0.007 c 57.4236,0.002 136.8312,0.92388 176.4613,2.04448 l 72.0553,2.03747 0,120.37171 c 0,66.204373 -1.046,120.350013 -2.3244,120.323629 -1.2783,-0.02422 -40.6761,-10.285693 -87.5507,-22.798515 l -85.2265,-22.750482 -2.1976,-18.265157 c -1.2085,-10.044985 -3.0809,-35.851555 -4.161,-57.347135 l -1.9636,-39.08265 -80.5378,-2.25029 c -44.2958,-1.23767 -81.2101,-1.57801 -82.0319,-0.75666 -2.8039,2.80392 26.4228,232.442693 29.8537,234.56297 1.8658,1.153276 73.7476,23.593968 159.7371,49.868344 l 156.3444,47.771526 0.025,82.90209 c 0.022,45.5962 -1.0168,82.74168 -2.2953,82.54543 -1.2785,-0.19594 -92.2667,-25.71375 -202.1962,-56.70576 l 0,0 z"
       style="fill:#0084c5;fill-opacity:1;fill-rule:nonzero;stroke:#0084c5;stroke-width:3.0967052;stroke-miterlimit:4;stroke-opacity:1;stroke-dasharray:none" />
    <path
       inkscape:connector-curvature="0"
       id="path5013"
       d="m 1889.7815,319.88365 c -164.7571,-44.36706 -249.9983,-68.67304 -251.6171,-71.7469 -1.3467,-2.55683 -28.3545,-282.874436 -60.0174,-622.92818 -31.6631,-340.05364 -58.2106,-622.11477 -58.9946,-626.80217 l -1.4257,-8.5227 620.9443,0 620.9446,0 -1.5276,19.36972 c -0.8404,10.6532 -22.688,292.98971 -48.5502,627.41398 -25.8622,334.424446 -47.8085,608.83043 -48.769,609.79109 -1.2857,1.28558 -487.6312,132.3941 -517.1698,139.41793 -2.5567,0.6082 -116.7744,-29.08879 -253.8175,-65.99277 l 0,0 z m 473.8569,-81.57847 c 104.8285,-29.25993 191.1218,-53.60444 191.7624,-54.09899 0.9249,-0.71397 89.8231,-1064.4035 90.168,-1078.87909 0.073,-3.06902 -53.6807,-3.8741 -258.6867,-3.8741 l -258.7786,0 0,82.1273 c 0,76.03924 -0.4018,82.14906 -5.4236,82.41965 -2.9828,0.15994 -93.5732,0.0422 -201.3114,-0.2657 -107.7384,-0.30657 -197.1012,0.19327 -198.5838,1.10876 -1.4832,0.91682 -0.3,20.90167 2.6294,44.42806 2.9285,23.51897 7.0266,57.04601 9.1066,74.50444 l 3.7819,31.74281 190.8578,0.79866 190.8577,0.79861 -95.9049,40.11426 c -142.2401,59.49513 -265.1934,112.42183 -267.9812,115.35571 -2.2245,2.34092 10.6106,133.61859 13.9638,142.82276 1.1002,3.01972 31.734,3.87398 138.9304,3.87398 75.6358,0 156.5673,0.91353 179.8478,2.03002 l 42.3285,2.02997 0,122.29725 0,122.29721 -6.973,-1.735159 c -3.8353,-0.95432 -45.5335,-11.874669 -92.6629,-24.267529 l -85.69,-22.532325 -1.785,-14.058415 c -0.9818,-7.732202 -2.723,-32.885802 -3.8695,-55.896952 -1.2326,-24.73373 -3.4809,-42.76933 -5.4997,-44.11534 -1.878,-1.25236 -37.9314,-2.29831 -80.1185,-2.32439 l -76.7039,-0.0484 0,10.39024 c 0,19.86057 25.8678,217.955124 28.8509,220.938059 0.9871,0.987217 77.6806,24.954509 207.5523,64.861751 58.3531,17.93086 108.0499,31.61118 111.2014,30.61094 5.4385,-1.72609 5.6979,2.14159 5.6979,84.9578 l 0,86.76607 20.9193,-5.98946 c 11.5057,-3.29419 106.6879,-29.9293 211.5166,-59.18928 z m -239.6038,44.66081 c -0.7762,-2.96299 -1.3822,0.19127 -1.348,7.00924 0.032,6.81813 0.6689,9.24234 1.4104,5.38738 0.7413,-3.8551 0.7131,-9.43352 -0.064,-12.39662 l 0,0 z m -395.7211,-92.8125 c -2.5567,-0.94008 -7.0892,-3.83538 -10.0721,-6.43392 -4.8706,-4.24305 -5.4236,-4.22503 -5.4236,0.17794 0,4.71738 5.7082,7.60952 15.4957,7.8512 4.1323,0.10152 4.1323,-0.0726 0,-1.59447 l 0,-4e-5 z"
       style="fill:#0084c5;fill-opacity:1;fill-rule:nonzero;stroke:#0084c5;stroke-width:3.0967052;stroke-miterlimit:4;stroke-opacity:1;stroke-dasharray:none" />
    <path
       inkscape:connector-curvature="0"
       id="path5015"
       d="M 2063.0212,367.16213 C 1944.2327,335.57668 1679.3618,263.94254 1656.8842,257.3227 l -20.2935,-5.97653 -6.9265,-72.1103 C 1614.9829,26.395162 1517.5719,-1007.1865 1517.5719,-1010.1206 c 0,-2.05 209.7762,-3.0949 621.3785,-3.0949 495.2604,0 621.3789,0.7867 621.3789,3.8769 0,5.451 -45.1891,588.09534 -72.8878,939.784437 -12.7523,161.914676 -23.1865,299.632953 -23.1865,306.040613 0,6.40762 -0.8258,11.6503 -1.8348,11.6503 -1.0097,0 -115.7167,30.58637 -254.9052,67.96973 -139.1877,37.38347 -256.5554,68.70674 -260.8168,69.60739 -4.5019,0.95145 -39.5589,-6.82086 -83.677,-18.55174 z m 282.0223,-125.2009 c 111.6467,-31.16634 204.5454,-58.2162 206.4413,-60.11071 3.4588,-3.45649 93.8045,-1072.50448 90.8849,-1075.42466 -0.7983,-0.79775 -116.4856,-1.89407 -257.0835,-2.43677 l -255.6333,-0.98659 c 0,0 11.2021,1194.48813 9.0152,1196.8668 1.8628,-0.6833 94.734,-26.74176 206.3807,-57.90807 l 4e-4,0 z"
       style="fill:#ec6432;fill-opacity:1;fill-rule:nonzero;stroke:none"
       sodipodi:nodetypes="cscssssssssscccccccccc" />
    <path
       style="fill:none;stroke:none"
       d="m 2513.1366,-720.53681 -379.4897,0 -383.9024,0 41.9204,461.12409 339.7757,0 187.5385,0 -13.238,194.157563 -170.6423,45.723465 -171.293,-45.897803 -15.4444,-116.761445 -152.2838,2.2063 19.8571,231.665272 319.596,85.635508 314.0225,-84.142008 39.3139,-464.823992 -357.4265,0 -205.1893,0 -11.0315,-154.44351 589.0914,-2.20631 z"
       id="path5023"
       inkscape:connector-curvature="0"
       sodipodi:nodetypes="cccccccccccccccccccc" />
    <path
       style="fill:#eab332;fill-opacity:1;stroke:none"
       d="m 3015.6213,-772.81275 82.4914,945.11863 381.8938,102.32816 0,-76.40225 0,-973.40157 z"
       id="path5035"
       inkscape:connector-curvature="0"
       sodipodi:nodetypes="cccccc" />
    <path
       style="fill:#f5ce35;fill-opacity:1;stroke:none"
       d="m 3477.574,-695.03498 379.462,0 -65.9933,808.41819 -308.6951,82.71458 z"
       id="path5039"
       inkscape:connector-curvature="0" />
    <path
       style="fill:#ffffff;fill-opacity:1;stroke:none"
       d="m 3187.6754,-581.90352 292.2561,0 294.6131,0 L 3725.0493,7.3225268 3476.9067,73.812199 3238.2169,9.85545 l -10.4746,-181.65763 115.4882,-9.42763 9.4277,96.633107 126.5648,33.912927 131.695,-35.287418 36.353,-378.087116 -167.3395,0 -280.4716,0 z"
       id="path5043"
       inkscape:connector-curvature="0" />
    <path
       inkscape:connector-curvature="0"
       id="path5045"
       d="m 3479.223,-50.683776 -126.5648,-33.912927 -9.4277,-96.633107 -115.4882,9.42763 10.4746,181.65763 238.6898,63.956749 m 3.0248,-655.715719 -292.2561,0 11.7845,117.84521 280.4716,0"
       style="fill:#e8e8e8;fill-opacity:1;stroke:none"
       sodipodi:nodetypes="cccccccccc" />
    <flowRoot
       xml:space="preserve"
       id="flowRoot5047"
       style="font-size:32px;font-style:normal;font-variant:normal;font-weight:normal;font-stretch:normal;line-height:125%;letter-spacing:0px;word-spacing:0px;fill:#000000;fill-opacity:1;stroke:none;font-family:Open Sans;-inkscape-font-specification:Open Sans"
       transform="translate(0,-1498.8193)"><flowRegion
         id="flowRegion5049"><rect
           id="rect5051"
           width="90"
           height="36"
           x="662"
           y="765.18115"
           style="font-size:32px" /></flowRegion><flowPara
         id="flowPara5053"></flowPara></flowRoot>    <flowRoot
       xml:space="preserve"
       id="flowRoot5055"
       style="font-size:28px;font-style:normal;font-variant:normal;font-weight:bold;font-stretch:normal;text-align:center;line-height:126.99999809%;letter-spacing:0px;word-spacing:0px;text-anchor:middle;fill:#000000;fill-opacity:1;stroke:none;font-family:Open Sans;-inkscape-font-specification:Open Sans Bold"
       transform="matrix(6.0494865,0,0,6.0494865,-3456.4383,-5631.0573)"><flowRegion
         id="flowRegion5057"><rect
           id="rect5059"
           width="152"
           height="44"
           x="628"
           y="757.18115"
           style="font-size:28px;font-weight:bold;text-align:center;line-height:126.99999809%;text-anchor:middle;-inkscape-font-specification:Open Sans Bold" /></flowRegion><flowPara
         id="flowPara5061">css</flowPara></flowRoot>    <flowRoot
       transform="matrix(6.0494865,0,0,6.0494865,-2089.7505,-5871.7905)"
       xml:space="preserve"
       id="flowRoot5055-2"
       style="font-size:28px;font-style:normal;font-variant:normal;font-weight:bold;font-stretch:normal;text-align:center;line-height:126.99999809%;letter-spacing:0px;word-spacing:0px;text-anchor:middle;fill:#000000;fill-opacity:1;stroke:none;display:inline;font-family:Open Sans;-inkscape-font-specification:Open Sans Bold"><flowRegion
         id="flowRegion5057-1"><rect
           id="rect5059-2"
           width="200"
           height="44"
           x="598"
           y="761.18115"
           style="font-size:28px;font-weight:bold;text-align:center;line-height:126.99999809%;text-anchor:middle;-inkscape-font-specification:Open Sans Bold" /></flowRegion><flowPara
         id="flowPara5061-1">HTML 5</flowPara></flowRoot>    <flowRoot
       transform="matrix(6.0494865,0,0,6.0494865,-783.06147,-5629.8113)"
       xml:space="preserve"
       id="flowRoot5055-9"
       style="font-size:24px;font-style:normal;font-variant:normal;font-weight:bold;font-stretch:normal;text-align:center;line-height:126.99999809%;letter-spacing:0px;word-spacing:0px;text-anchor:middle;fill:#000000;fill-opacity:1;stroke:none;display:inline;font-family:Open Sans;-inkscape-font-specification:Open Sans Bold"><flowRegion
         id="flowRegion5057-5"><rect
           id="rect5059-5"
           width="154"
           height="44"
           x="628"
           y="759.18115"
           style="font-size:24px;font-weight:bold;text-align:center;line-height:126.99999809%;text-anchor:middle;-inkscape-font-specification:Open Sans Bold" /></flowRegion><flowPara
         id="flowPara5061-9">JAVASCRIPT</flowPara></flowRoot>  </g>
  <g
     inkscape:groupmode="layer"
     id="layer5"
     inkscape:label="Capa"
     style="display:inline">
    <path
       style="fill:#ffffff;fill-opacity:1;stroke:none"
       d="m 801.07689,1049.7143 -276.76398,115.6962 -3.21377,0 0.18883,1.3236 -2.45762,0.9449 2.45762,0 11.53182,109.2689 404.37036,2.2686 -11.53152,153.3169 -123.25829,32.7048 -139.51627,-37.2419 -4.53713,-86.0164 -120.80068,-2.2686 20.7951,174.3008 234.7957,72.027 239.33284,-62.7634 39.5107,-355.5967 -266.74458,-1.1342 263.15268,-116.8305 3.5919,0 11.5319,-109.26879 -282.34719,-2.36311 m 0,0 -305.58737,-2.36306 13.98944,113.99496 291.50962,0"
       id="path4450"
       inkscape:connector-curvature="0"
       sodipodi:nodetypes="cccccccccccccccccccccccccc" />
    <path
       sodipodi:nodetypes="cccccccccccccccccc"
       inkscape:connector-curvature="0"
       id="path5001"
       d="m 801.07689,1049.7143 -276.76398,115.6962 -3.21377,0 0.18883,1.3236 -2.45762,0.9449 2.45762,0 11.53182,109.2689 269.58218,1.1342 m -1.32465,-228.3678 -291.50963,0 -13.98943,-113.99496 305.58737,2.36306 m 3.59159,650.281 -246.41586,-74.3513 -20.7951,-174.3008 120.80068,2.2686 4.53713,86.0164 139.51627,37.2419"
       style="fill:#ededed;fill-opacity:1;stroke:none" />
  </g>
  <g
     inkscape:groupmode="layer"
     id="layer6"
     inkscape:label="Capa#1"
     style="display:inline">
    <path
       style="fill:#ffffff;fill-opacity:1;stroke:none"
       d="m 2127.9202,1087.8065 361.9514,-1.203 -38.8649,463.7864 -316.4746,84.7991 0,-154.7557 166.0762,-44.5 20.8494,-201.6435 -193.7226,5.4133 z"
       id="path5033"
       inkscape:connector-curvature="0"
       sodipodi:nodetypes="ccccccccc" />
    <path
       style="fill:#ffffff;fill-opacity:1;stroke:none"
       d="m 2132.917,930.97678 375.3227,0.60132 15.5459,-152.8681 -388.6477,0 z"
       id="path5031"
       inkscape:connector-curvature="0"
       sodipodi:nodetypes="ccccc" />
    <path
       sodipodi:nodetypes="cccccccccccccccc"
       inkscape:connector-curvature="0"
       id="path5025"
       d="m 2133.8465,1087.7709 -205.1892,0 -11.0316,-154.44347 217.3241,-1.10318 1.1029,-153.34032 c -127.9672,0 -383.9023,0 -383.9023,0 l 41.9203,461.12417 339.7758,0 z m 3.6582,392.1182 -171.293,-45.8978 -15.4444,-116.7615 -152.2837,2.2063 19.857,231.6653 317.1901,84.4326 z"
       style="fill:#e1e1e1;fill-opacity:1;stroke:none;display:inline" />
  </g>
</svg>
