<?xml version="1.0" encoding="UTF-8" standalone="no"?>
<!-- Created with Inkscape (http://www.inkscape.org/) -->

<svg
   xmlns:dc="http://purl.org/dc/elements/1.1/"
   xmlns:cc="http://creativecommons.org/ns#"
   xmlns:rdf="http://www.w3.org/1999/02/22-rdf-syntax-ns#"
   xmlns:svg="http://www.w3.org/2000/svg"
   xmlns="http://www.w3.org/2000/svg"
   xmlns:sodipodi="http://sodipodi.sourceforge.net/DTD/sodipodi-0.dtd"
   xmlns:inkscape="http://www.inkscape.org/namespaces/inkscape"
   width="3628.3464"
   height="1665.3542"
   id="svg3851"
   version="1.1"
   inkscape:version="0.48.5 r10040"
   sodipodi:docname="htmlcsslogos.svg"
   inkscape:export-filename="htmlcsslogos.png"
   inkscape:export-xdpi="41.59"
   inkscape:export-ydpi="41.59">
  <defs
     id="defs3" />
  <sodipodi:namedview
     inkscape:document-units="mm"
     id="base"
     pagecolor="#ffffff"
     bordercolor="#666666"
     borderopacity="1.0"
     inkscape:pageopacity="0.0"
     inkscape:pageshadow="2"
     inkscape:zoom="0.19261668"
     inkscape:cx="2125.9841"
     inkscape:cy="1119.8408"
     inkscape:current-layer="layer1"
     showgrid="false"
     units="mm"
     inkscape:window-width="1280"
     inkscape:window-height="740"
     inkscape:window-x="-8"
     inkscape:window-y="-8"
     inkscape:window-maximized="1" />
  <metadata
     id="metadata4">
    <rdf:RDF>
      <cc:Work
         rdf:about="">
        <dc:format>image/svg+xml</dc:format>
        <dc:type
           rdf:resource="http://purl.org/dc/dcmitype/StillImage" />
        <dc:title />
      </cc:Work>
    </rdf:RDF>
  </metadata>
  <g
     inkscape:label="Layer 1"
     inkscape:groupmode="layer"
     id="layer1"
     transform="translate(0,612.99236)"
     style="display:inline">
    <path
       sodipodi:nodetypes="cccccc"
       inkscape:connector-curvature="0"
       id="path5037"
       d="m 3613.7676,-118.81275 -82.4914,945.11863 -381.8939,102.32816 0,-76.40225 0,-973.40157 z"
       style="fill:#eab332;fill-opacity:1;stroke:none" />
    <path
       style="fill:#0084c4;fill-opacity:1;stroke:none"
       d="m 17.20429,-117.1133 932.76591,0 L 876.8169,828.25193 485.00873,933.23661 106.45069,831.80226 z"
       id="path4446"
       inkscape:connector-curvature="0"
       sodipodi:nodetypes="cccccc" />
    <path
       inkscape:connector-curvature="0"
       id="path4448"
       d="m 472.26293,-34.90769 394.61077,0 -67.5039,817.40107 -324.20797,90.774 m 0,0 -313.24395,-87.70425 -84.26555,-820.47082 394.6106,0 z"
       style="fill:#2bb9e9;fill-opacity:1;stroke:#0084c5;stroke-width:6.04472303;stroke-miterlimit:4;stroke-opacity:1;stroke-dasharray:none"
       sodipodi:nodetypes="ccccccccc" />
    <path
       style="fill:#0084c5;fill-opacity:1;fill-rule:nonzero;stroke:#0084c5;stroke-width:2.3222034;stroke-miterlimit:4;stroke-opacity:1;stroke-dasharray:none"
       d="M 317.40179,824.97602 C 176.769,785.32792 167.41408,782.36827 165.81993,777.0198 164.49012,772.55843 82.47009,-22.90664 82.61968,-29.8909 c 0.0178,-0.95868 86.84004,-1.74305 192.93211,-1.74305 l 192.89482,0 0,61.94033 0,61.94033 L 318.5464,90.97716 C 216.48553,90.11276 168.64629,90.47084 168.64629,92.1 c 0,3.10188 11.35108,95.87355 12.94084,105.76434 l 1.21399,7.55314 143.4037,0.0604 143.40382,0.0604 -138.28004,57.97339 c -91.21761,38.24266 -138.01516,58.98577 -137.50199,60.94785 0.42771,1.6359 2.76558,22.32199 5.19483,45.96901 2.42929,23.64702 5.01926,47.43936 5.75553,52.8718 l 1.33865,9.87711 78.29372,0.004 c 43.06156,0.002 102.6089,0.69284 132.32748,1.53318 l 54.03375,1.52784 0,90.26615 c 0,49.64634 -0.78436,90.24989 -1.74295,90.23009 -0.95869,-0.0178 -30.50299,-7.71322 -65.65399,-17.09651 l -63.91088,-17.06046 -1.64783,-13.69695 c -0.90633,-7.53271 -2.31047,-26.8849 -3.12037,-43.00429 l -1.47264,-29.30787 -60.39486,-1.68751 c -33.21719,-0.92813 -60.89899,-1.18334 -61.51512,-0.56744 -2.10268,2.10268 19.81425,174.3076 22.38691,175.8976 1.39931,0.86483 55.30307,17.69299 119.78612,37.39597 l 117.24195,35.82368 0.0174,62.16786 c 0.0109,34.19235 -0.76253,62.04751 -1.72123,61.90038 -0.95869,-0.14706 -69.19026,-19.28261 -151.62584,-42.5234 l 9.5e-4,0 z"
       id="path4976"
       inkscape:connector-curvature="0" />
    <path
       inkscape:connector-curvature="0"
       id="path5015"
       d="M 1737.0212,1021.1621 C 1618.2327,989.57668 1353.3618,917.94254 1330.8842,911.3227 l -20.2935,-5.97653 -6.9265,-72.1103 C 1288.9829,680.39516 1191.5719,-353.1865 1191.5719,-356.1206 c 0,-2.05 209.7762,-3.0949 621.3785,-3.0949 495.2604,0 621.3789,0.7867 621.3789,3.8769 0,5.451 -45.1891,588.09534 -72.8878,939.78444 -12.7523,161.91467 -23.1865,299.63295 -23.1865,306.04061 0,6.40762 -0.8258,11.6503 -1.8348,11.6503 -1.0097,0 -115.7167,30.58637 -254.9052,67.96973 -139.1877,37.38352 -256.5554,68.70672 -260.8168,69.60742 -4.5019,0.9514 -39.5589,-6.8209 -83.677,-18.5518 z m 282.0223,-125.20087 c 111.6467,-31.16634 204.5454,-58.2162 206.4413,-60.11071 3.4588,-3.45649 93.8045,-1072.50448 90.8849,-1075.42466 -0.7983,-0.79775 -116.4856,-1.89407 -257.0835,-2.43677 l -255.6333,-0.98659 c 0,0 11.2021,1194.48813 9.0152,1196.8668 1.8628,-0.6833 94.734,-26.74176 206.3807,-57.90807 l 4e-4,0 z"
       style="fill:#ec6432;fill-opacity:1;fill-rule:nonzero;stroke:none"
       sodipodi:nodetypes="cscssssssssscccccccccc" />
    <path
       sodipodi:nodetypes="ccccccccc"
       style="fill:#f67b37;fill-opacity:1;stroke:none"
       d="m 1797.8953,-248.91271 526.2215,0 -90.0181,1090.02095 -432.3377,121.04897 m 0,0 -417.7172,-116.95539 -112.3698,-1094.11453 526.2213,0 z"
       id="path5009"
       inkscape:connector-curvature="0" />
    <path
       style="fill:none;stroke:none"
       d="m 2187.1366,-66.53681 -379.4897,0 -383.9024,0 41.9204,461.12409 339.7757,0 187.5385,0 -13.238,194.15756 -170.6423,45.72347 -171.293,-45.8978 -15.4444,-116.76145 -152.2838,2.2063 19.8571,231.66527 319.596,85.63551 314.0225,-84.14201 39.3139,-464.82399 -357.4265,0 -205.1893,0 -11.0315,-154.44351 589.0914,-2.20631 z"
       id="path5023"
       inkscape:connector-curvature="0"
       sodipodi:nodetypes="cccccccccccccccccccc" />
    <path
       style="fill:#eab332;fill-opacity:1;stroke:none"
       d="m 2689.6213,-118.81275 82.4914,945.11863 381.8938,102.32816 0,-76.40225 0,-973.40157 z"
       id="path5035"
       inkscape:connector-curvature="0"
       sodipodi:nodetypes="cccccc" />
    <path
       style="fill:#f5ce35;fill-opacity:1;stroke:none"
       d="m 3151.574,-41.03498 379.462,0 -65.9933,808.41819 -308.6951,82.71458 z"
       id="path5039"
       inkscape:connector-curvature="0" />
    <path
       style="fill:#ffffff;fill-opacity:1;stroke:none"
       d="m 2861.6754,72.09648 292.2561,0 294.6131,0 -49.4953,589.22605 -248.1426,66.48967 -238.6898,-63.95675 -10.4746,-181.65763 115.4882,-9.42763 9.4277,96.63311 126.5648,33.91292 131.695,-35.28741 36.353,-378.08712 -167.3395,0 -280.4716,0 z"
       id="path5043"
       inkscape:connector-curvature="0" />
    <path
       inkscape:connector-curvature="0"
       id="path5045"
       d="m 3153.223,603.31622 -126.5648,-33.91292 -9.4277,-96.63311 -115.4882,9.42763 10.4746,181.65763 238.6898,63.95675 m 3.0248,-655.71572 -292.2561,0 11.7845,117.84521 280.4716,0"
       style="fill:#e8e8e8;fill-opacity:1;stroke:none"
       sodipodi:nodetypes="cccccccccc" />
    <flowRoot
       xml:space="preserve"
       id="flowRoot5047"
       style="font-size:32px;font-style:normal;font-variant:normal;font-weight:normal;font-stretch:normal;line-height:125%;letter-spacing:0px;word-spacing:0px;fill:#000000;fill-opacity:1;stroke:none;font-family:Open Sans;-inkscape-font-specification:Open Sans"
       transform="translate(0,-1498.8193)"><flowRegion
         id="flowRegion5049"><rect
           id="rect5051"
           width="90"
           height="36"
           x="662"
           y="765.18115"
           style="font-size:32px" /></flowRegion><flowPara
         id="flowPara5053" /></flowRoot>    <g
       transform="matrix(6.0494865,0,0,6.0494865,-3782.4383,-4977.0573)"
       style="font-size:28px;font-style:normal;font-variant:normal;font-weight:bold;font-stretch:normal;text-align:center;line-height:126.99999809%;letter-spacing:0px;word-spacing:0px;text-anchor:middle;fill:#ffffff;fill-opacity:1;stroke:none;font-family:Open Sans;-inkscape-font-specification:Open Sans Bold"
       id="flowRoot5055">
      <path
         d="m 691.25781,782.89802 c -4.75781,0 -7.13672,-2.61133 -7.13672,-7.83399 0,-2.59764 0.64714,-4.58234 1.94141,-5.9541 1.29427,-1.37173 3.14908,-2.0576 5.56445,-2.05762 1.76822,2e-5 3.35416,0.34637 4.75782,1.03907 l -1.23047,3.22656 c -0.65626,-0.26431 -1.26694,-0.48078 -1.83203,-0.64941 -0.56512,-0.16861 -1.13022,-0.25292 -1.69532,-0.25293 -2.16927,10e-6 -3.25391,1.54037 -3.2539,4.62109 -1e-5,2.98959 1.08463,4.48438 3.2539,4.48437 0.80208,10e-6 1.54491,-0.10709 2.22852,-0.32128 0.68358,-0.21419 1.36717,-0.54915 2.05078,-1.00489 l 0,3.56836 c -0.67449,0.42839 -1.35581,0.72461 -2.04395,0.88867 -0.68816,0.16407 -1.55632,0.2461 -2.60449,0.2461 z"
         style="fill:#ffffff"
         id="path5737"
         inkscape:connector-curvature="0" />
      <path
         d="m 710.09766,778.08552 c -2e-5,1.56771 -0.54461,2.76172 -1.63379,3.58203 -1.08921,0.82031 -2.71844,1.23047 -4.8877,1.23047 -1.11198,0 -2.0599,-0.0752 -2.84375,-0.22559 -0.78385,-0.15039 -1.51758,-0.37142 -2.20117,-0.66308 l 0,-3.44532 c 0.77474,0.36459 1.64746,0.66993 2.61816,0.91602 0.9707,0.2461 1.82519,0.36914 2.56348,0.36914 1.51301,0 2.26952,-0.4375 2.26953,-1.3125 -1e-5,-0.32812 -0.10027,-0.59472 -0.30078,-0.79981 -0.20053,-0.20507 -0.54688,-0.43749 -1.03906,-0.69726 -0.4922,-0.25976 -1.14845,-0.56282 -1.96875,-0.90918 -1.17579,-0.49218 -2.03939,-0.94791 -2.59082,-1.36719 -0.55144,-0.41926 -0.95248,-0.90005 -1.20313,-1.44238 -0.25065,-0.54231 -0.37598,-1.20995 -0.37597,-2.00293 -10e-6,-1.35806 0.52636,-2.40852 1.5791,-3.15137 1.05273,-0.74282 2.54524,-1.11424 4.47754,-1.11426 1.84113,2e-5 3.63215,0.40106 5.37304,1.20313 l -1.25781,3.00781 c -0.76563,-0.32811 -1.48113,-0.59699 -2.14648,-0.80664 -0.66538,-0.20962 -1.34441,-0.31444 -2.03711,-0.31445 -1.23048,10e-6 -1.84571,0.33269 -1.84571,0.99804 0,0.37371 0.19824,0.69728 0.59473,0.97071 0.39648,0.27345 1.26464,0.67904 2.60449,1.21679 1.194,0.48309 2.069,0.93426 2.625,1.35352 0.55598,0.41928 0.96614,0.90235 1.23047,1.44922 0.26431,0.54688 0.39647,1.19857 0.39649,1.95508 z"
         style="fill:#ffffff"
         id="path5739"
         inkscape:connector-curvature="0" />
      <path
         d="m 724.04297,778.08552 c -10e-6,1.56771 -0.54461,2.76172 -1.63379,3.58203 -1.0892,0.82031 -2.71843,1.23047 -4.8877,1.23047 -1.11198,0 -2.0599,-0.0752 -2.84375,-0.22559 -0.78385,-0.15039 -1.51758,-0.37142 -2.20117,-0.66308 l 0,-3.44532 c 0.77474,0.36459 1.64746,0.66993 2.61817,0.91602 0.97069,0.2461 1.82519,0.36914 2.56347,0.36914 1.51302,0 2.26953,-0.4375 2.26953,-1.3125 0,-0.32812 -0.10026,-0.59472 -0.30078,-0.79981 -0.20053,-0.20507 -0.54688,-0.43749 -1.03906,-0.69726 -0.49219,-0.25976 -1.14844,-0.56282 -1.96875,-0.90918 -1.17578,-0.49218 -2.03939,-0.94791 -2.59082,-1.36719 -0.55143,-0.41926 -0.95248,-0.90005 -1.20312,-1.44238 -0.25066,-0.54231 -0.37598,-1.20995 -0.37598,-2.00293 0,-1.35806 0.52636,-2.40852 1.5791,-3.15137 1.05273,-0.74282 2.54524,-1.11424 4.47754,-1.11426 1.84114,2e-5 3.63215,0.40106 5.37305,1.20313 l -1.25782,3.00781 c -0.76563,-0.32811 -1.48113,-0.59699 -2.14648,-0.80664 -0.66537,-0.20962 -1.34441,-0.31444 -2.03711,-0.31445 -1.23047,10e-6 -1.84571,0.33269 -1.8457,0.99804 -1e-5,0.37371 0.19823,0.69728 0.59472,0.97071 0.39648,0.27345 1.26464,0.67904 2.6045,1.21679 1.194,0.48309 2.069,0.93426 2.625,1.35352 0.55597,0.41928 0.96613,0.90235 1.23046,1.44922 0.26431,0.54688 0.39648,1.19857 0.39649,1.95508 z"
         style="fill:#ffffff"
         id="path5741"
         inkscape:connector-curvature="0" />
    </g>
    <g
       transform="matrix(6.0494865,0,0,6.0494865,-2415.7505,-5217.7905)"
       style="font-size:28px;font-style:normal;font-variant:normal;font-weight:bold;font-stretch:normal;text-align:center;line-height:126.99999809%;letter-spacing:0px;word-spacing:0px;text-anchor:middle;fill:#ffffff;fill-opacity:1;stroke:none;display:inline;font-family:Open Sans;-inkscape-font-specification:Open Sans Bold"
       id="flowRoot5055-2">
      <path
         d="m 665.32422,786.62458 -4.22461,0 0,-8.62695 -7.91602,0 0,8.62695 -4.23828,0 0,-19.98828 4.23828,0 0,7.83398 7.91602,0 0,-7.83398 4.22461,0 z"
         style="fill:#ffffff"
         id="path5726"
         inkscape:connector-curvature="0" />
      <path
         d="m 678.09375,786.62458 -4.23828,0 0,-16.46094 -5.42774,0 0,-3.52734 15.09375,0 0,3.52734 -5.42773,0 z"
         style="fill:#ffffff"
         id="path5728"
         inkscape:connector-curvature="0" />
      <path
         d="m 695.08789,786.62458 -4.8125,-15.68164 -0.12305,0 c 0.17317,3.19012 0.25976,5.31837 0.25977,6.38476 l 0,9.29688 -3.78711,0 0,-19.98828 5.76953,0 4.73047,15.28515 0.082,0 5.01758,-15.28515 5.76953,0 0,19.98828 -3.95117,0 0,-9.46094 c -2e-5,-0.4466 0.007,-0.96158 0.0205,-1.54492 0.0136,-0.58332 0.0752,-2.1328 0.18457,-4.64844 l -0.12305,0 -5.1543,15.6543 z"
         style="fill:#ffffff"
         id="path5730"
         inkscape:connector-curvature="0" />
      <path
         d="m 713.03906,786.62458 0,-19.98828 4.23828,0 0,16.48828 8.10743,0 0,3.5 z"
         style="fill:#ffffff"
         id="path5732"
         inkscape:connector-curvature="0" />
      <path
         d="m 741.99609,773.85505 c 1.93229,10e-6 3.47037,0.54233 4.61426,1.62695 1.14387,1.08465 1.71581,2.57032 1.71582,4.45703 -1e-5,2.23308 -0.68816,3.95118 -2.06445,5.1543 -1.37631,1.20313 -3.34506,1.80469 -5.90625,1.80469 -2.22396,0 -4.01954,-0.36003 -5.38672,-1.08008 l 0,-3.65039 c 0.72005,0.38282 1.55859,0.69499 2.51562,0.93652 0.95703,0.24154 1.86393,0.36231 2.72071,0.36231 2.57942,0 3.86913,-1.05729 3.86914,-3.17188 -10e-6,-2.01431 -1.3353,-3.02147 -4.00586,-3.02148 -0.48308,10e-6 -1.01628,0.0479 -1.59961,0.14355 -0.58334,0.0957 -1.0573,0.19825 -1.42188,0.30762 l -1.68164,-0.90234 0.75196,-10.18555 10.84179,0 0,3.58203 -7.13671,0 -0.36915,3.92383 0.47852,-0.0957 c 0.55598,-0.12759 1.24413,-0.19139 2.06445,-0.1914 z"
         style="fill:#ffffff"
         id="path5734"
         inkscape:connector-curvature="0" />
    </g>
    <g
       transform="matrix(6.0494865,0,0,6.0494865,-1109.0615,-4975.8113)"
       style="font-size:24px;font-style:normal;font-variant:normal;font-weight:bold;font-stretch:normal;text-align:center;line-height:126.99999809%;letter-spacing:0px;word-spacing:0px;text-anchor:middle;fill:#ffffff;fill-opacity:1;stroke:none;display:inline;font-family:Open Sans;-inkscape-font-specification:Open Sans Bold"
       id="flowRoot5055-9">
      <path
         d="m 636.36328,786.02977 c -0.82031,0 -1.53515,-0.0859 -2.14453,-0.25781 l 0,-3.02344 c 0.625,0.15625 1.19531,0.23438 1.71094,0.23438 0.79687,0 1.36718,-0.24805 1.71093,-0.74414 0.34375,-0.4961 0.51563,-1.27149 0.51563,-2.32617 l 0,-16.05469 3.63281,0 0,16.03125 c 0,2 -0.45703,3.52343 -1.37109,4.57031 -0.91407,1.04687 -2.26563,1.57031 -4.05469,1.57031 z"
         style="fill:#ffffff"
         id="path5705"
         inkscape:connector-curvature="0" />
      <path
         d="m 656.61328,780.99071 -1.24219,-4.07812 -6.24609,0 -1.24219,4.07812 -3.91406,0 6.04687,-17.20312 4.44141,0 6.07031,17.20312 z m -2.10937,-7.125 c -1.14845,-3.6953 -1.79493,-5.78514 -1.93946,-6.26953 -0.14454,-0.48436 -0.24805,-0.86717 -0.31054,-1.14844 -0.25782,1.00002 -0.9961,3.47267 -2.21485,7.41797 z"
         style="fill:#ffffff"
         id="path5707"
         inkscape:connector-curvature="0" />
      <path
         d="m 672.44531,763.8579 3.66797,0 -5.82422,17.13281 -3.96094,0 -5.8125,-17.13281 3.66797,0 3.22266,10.19531 c 0.17968,0.60157 0.36523,1.30274 0.55664,2.10352 0.1914,0.80078 0.31054,1.35742 0.35742,1.66992 0.0859,-0.71875 0.3789,-1.97656 0.87891,-3.77344 z"
         style="fill:#ffffff"
         id="path5709"
         inkscape:connector-curvature="0" />
      <path
         d="m 688.76953,780.99071 -1.24219,-4.07812 -6.24609,0 -1.24219,4.07812 -3.91406,0 6.04687,-17.20312 4.44141,0 6.07031,17.20312 z m -2.10937,-7.125 c -1.14845,-3.6953 -1.79493,-5.78514 -1.93946,-6.26953 -0.14454,-0.48436 -0.24805,-0.86717 -0.31054,-1.14844 -0.25782,1.00002 -0.9961,3.47267 -2.21485,7.41797 z"
         style="fill:#ffffff"
         id="path5711"
         inkscape:connector-curvature="0" />
      <path
         d="m 704.94141,776.2329 c -2e-5,1.54688 -0.55666,2.76563 -1.66993,3.65625 -1.11329,0.89062 -2.66211,1.33594 -4.64648,1.33594 -1.82813,0 -3.44532,-0.34375 -4.85156,-1.03125 l 0,-3.375 c 1.15625,0.51563 2.13476,0.87891 2.93554,1.08984 0.80078,0.21094 1.5332,0.31641 2.19727,0.31641 0.79687,0 1.4082,-0.15234 1.83398,-0.45703 0.42578,-0.30469 0.63867,-0.75781 0.63868,-1.35938 -10e-6,-0.33593 -0.0938,-0.63476 -0.28125,-0.89648 -0.18751,-0.26172 -0.4629,-0.51367 -0.82618,-0.75586 -0.36328,-0.24218 -1.10352,-0.6289 -2.2207,-1.16016 -1.04688,-0.49218 -1.83203,-0.96484 -2.35547,-1.41797 -0.52344,-0.45311 -0.94141,-0.98046 -1.2539,-1.58203 -0.31251,-0.60155 -0.46876,-1.30468 -0.46875,-2.10937 -10e-6,-1.51562 0.51367,-2.70702 1.54101,-3.57422 1.02734,-0.86717 2.44726,-1.30077 4.25977,-1.30078 0.89061,10e-6 1.74022,0.10548 2.54883,0.3164 0.80858,0.21096 1.65428,0.50783 2.5371,0.89063 l -1.17187,2.82422 c -0.91407,-0.37499 -1.66993,-0.63671 -2.26758,-0.78516 -0.59766,-0.14842 -1.18555,-0.22264 -1.76367,-0.22266 -0.68751,2e-5 -1.21485,0.16017 -1.58203,0.48047 -0.36719,0.32033 -0.55079,0.7383 -0.55078,1.25391 -1e-5,0.32032 0.0742,0.59962 0.22265,0.83789 0.14844,0.23829 0.38476,0.46876 0.70899,0.6914 0.32421,0.22267 1.09179,0.62306 2.30273,1.20118 1.60156,0.76563 2.69921,1.53321 3.29297,2.30273 0.59374,0.76954 0.89061,1.7129 0.89063,2.83008 z"
         style="fill:#ffffff"
         id="path5713"
         inkscape:connector-curvature="0" />
      <path
         d="m 715.32422,766.63524 c -1.3672,2e-5 -2.42579,0.51369 -3.17578,1.54102 -0.75001,1.02735 -1.12501,2.45899 -1.125,4.29492 -1e-5,3.82032 1.43358,5.73047 4.30078,5.73047 1.20311,0 2.66014,-0.30078 4.37109,-0.90234 l 0,3.04687 c -1.40626,0.58594 -2.97657,0.87891 -4.71094,0.87891 -2.49219,0 -4.39844,-0.75586 -5.71875,-2.26758 -1.32031,-1.51172 -1.98047,-3.68164 -1.98046,-6.50977 -10e-6,-1.78124 0.32421,-3.34178 0.97265,-4.68164 0.64844,-1.33983 1.58008,-2.36717 2.79492,-3.08203 1.21484,-0.71483 2.63867,-1.07225 4.27149,-1.07226 1.66405,10e-6 3.33592,0.40236 5.01562,1.20703 l -1.17187,2.95312 c -0.64064,-0.30467 -1.28517,-0.5703 -1.9336,-0.79687 -0.64844,-0.22655 -1.28516,-0.33983 -1.91015,-0.33985 z"
         style="fill:#ffffff"
         id="path5715"
         inkscape:connector-curvature="0" />
      <path
         d="m 726.96094,771.46337 1.17187,0 c 1.14843,10e-6 1.99609,-0.1914 2.54297,-0.57422 0.54687,-0.3828 0.8203,-0.98437 0.82031,-1.80469 -10e-6,-0.81249 -0.2793,-1.39061 -0.83789,-1.73437 -0.5586,-0.34374 -1.42383,-0.51561 -2.5957,-0.51563 l -1.10156,0 z m 0,2.95312 0,6.57422 -3.63282,0 0,-17.13281 4.99219,0 c 2.32812,2e-5 4.05077,0.42384 5.16797,1.27148 1.11718,0.84767 1.67577,2.13478 1.67578,3.86133 -10e-6,1.00782 -0.27735,1.90431 -0.83203,2.68945 -0.5547,0.78517 -1.33985,1.4004 -2.35547,1.84571 2.57811,3.85156 4.2578,6.33984 5.03906,7.46484 l -4.03125,0 -4.08984,-6.57422 z"
         style="fill:#ffffff"
         id="path5717"
         inkscape:connector-curvature="0" />
      <path
         d="m 739.17187,780.99071 0,-17.13281 3.63282,0 0,17.13281 z"
         style="fill:#ffffff"
         id="path5719"
         inkscape:connector-curvature="0" />
      <path
         d="m 750.77344,771.9204 1.19531,0 c 1.11718,10e-6 1.95312,-0.22069 2.50781,-0.66211 0.55468,-0.4414 0.83202,-1.08397 0.83203,-1.92773 -10e-6,-0.85155 -0.23243,-1.48046 -0.69726,-1.88672 -0.46485,-0.40624 -1.19337,-0.60936 -2.18555,-0.60938 l -1.65234,0 z m 8.20312,-2.71875 c -10e-6,1.84376 -0.57618,3.25391 -1.72851,4.23047 -1.15236,0.97657 -2.79103,1.46485 -4.91602,1.46484 l -1.55859,0 0,6.09375 -3.63282,0 0,-17.13281 5.47266,0 c 2.07812,2e-5 3.65819,0.44728 4.74024,1.3418 1.08201,0.89454 1.62303,2.22852 1.62304,4.00195 z"
         style="fill:#ffffff"
         id="path5721"
         inkscape:connector-curvature="0" />
      <path
         d="m 768.84375,780.99071 -3.63281,0 0,-14.10937 -4.65235,0 0,-3.02344 12.9375,0 0,3.02344 -4.65234,0 z"
         style="fill:#ffffff"
         id="path5723"
         inkscape:connector-curvature="0" />
    </g>
  </g>
  <g
     inkscape:groupmode="layer"
     id="layer5"
     inkscape:label="Capa"
     style="display:inline"
     transform="translate(0,-885.82699)">
    <path
       style="fill:#ffffff;fill-opacity:1;stroke:none"
       d="m 475.07689,1703.7143 -276.76398,115.6962 -3.21377,0 0.18883,1.3236 -2.45762,0.9449 2.45762,0 11.53182,109.2689 404.37036,2.2686 -11.53152,153.3169 -123.25829,32.7048 -139.51627,-37.2419 -4.53713,-86.0164 -120.80068,-2.2686 20.7951,174.3008 234.7957,72.027 239.33284,-62.7634 39.5107,-355.5967 -266.74458,-1.1342 263.15268,-116.8305 3.5919,0 11.5319,-109.2688 -282.34719,-2.3631 m 0,0 -305.58737,-2.3631 13.98944,113.995 291.50962,0"
       id="path4450"
       inkscape:connector-curvature="0"
       sodipodi:nodetypes="cccccccccccccccccccccccccc" />
    <path
       sodipodi:nodetypes="cccccccccccccccccc"
       inkscape:connector-curvature="0"
       id="path5001"
       d="m 475.07689,1703.7143 -276.76398,115.6962 -3.21377,0 0.18883,1.3236 -2.45762,0.9449 2.45762,0 11.53182,109.2689 269.58218,1.1342 m -1.32465,-228.3678 -291.50963,0 -13.98943,-113.995 305.58737,2.3631 m 3.59159,650.281 -246.41586,-74.3513 -20.7951,-174.3008 120.80068,2.2686 4.53713,86.0164 139.51627,37.2419"
       style="fill:#ededed;fill-opacity:1;stroke:none" />
  </g>
  <g
     inkscape:groupmode="layer"
     id="layer6"
     inkscape:label="Capa#1"
     style="display:inline"
     transform="translate(0,-885.82699)">
    <path
       style="fill:#ffffff;fill-opacity:1;stroke:none"
       d="m 1801.9202,1741.8065 361.9514,-1.203 -38.8649,463.7864 -316.4746,84.7991 0,-154.7557 166.0762,-44.5 20.8494,-201.6435 -193.7226,5.4133 z"
       id="path5033"
       inkscape:connector-curvature="0"
       sodipodi:nodetypes="ccccccccc" />
    <path
       style="fill:#ffffff;fill-opacity:1;stroke:none"
       d="m 1806.917,1584.9768 375.3227,0.6013 15.5459,-152.8681 -388.6477,0 z"
       id="path5031"
       inkscape:connector-curvature="0"
       sodipodi:nodetypes="ccccc" />
    <path
       sodipodi:nodetypes="cccccccccccccccc"
       inkscape:connector-curvature="0"
       id="path5025"
       d="m 1807.8465,1741.7709 -205.1892,0 -11.0316,-154.4435 217.3241,-1.1031 1.1029,-153.3404 c -127.9672,0 -383.9023,0 -383.9023,0 l 41.9203,461.1242 339.7758,0 z m 3.6582,392.1182 -171.293,-45.8978 -15.4444,-116.7615 -152.2837,2.2063 19.857,231.6653 317.1901,84.4326 z"
       style="fill:#e1e1e1;fill-opacity:1;stroke:none;display:inline" />
  </g>
</svg>
