<?xml version="1.0" encoding="UTF-8" standalone="no"?>
<!-- Created with Inkscape (http://www.inkscape.org/) -->

<svg
   xmlns:dc="http://purl.org/dc/elements/1.1/"
   xmlns:cc="http://creativecommons.org/ns#"
   xmlns:rdf="http://www.w3.org/1999/02/22-rdf-syntax-ns#"
   xmlns:svg="http://www.w3.org/2000/svg"
   xmlns="http://www.w3.org/2000/svg"
   xmlns:sodipodi="http://sodipodi.sourceforge.net/DTD/sodipodi-0.dtd"
   xmlns:inkscape="http://www.inkscape.org/namespaces/inkscape"
   width="1090"
   height="690"
   id="svg2"
   version="1.1"
   inkscape:version="0.48.5 r10040"
   sodipodi:docname="ODY.svg">
  <defs
     id="defs4" />
  <sodipodi:namedview
     id="base"
     pagecolor="#ffffff"
     bordercolor="#666666"
     borderopacity="1.0"
     inkscape:pageopacity="0.0"
     inkscape:pageshadow="2"
     inkscape:zoom="0.70107239"
     inkscape:cx="528"
     inkscape:cy="348.43621"
     inkscape:document-units="px"
     inkscape:current-layer="layer1"
     showgrid="false"
     inkscape:window-width="1280"
     inkscape:window-height="740"
     inkscape:window-x="-8"
     inkscape:window-y="-8"
     inkscape:window-maximized="1">
    <inkscape:grid
       type="xygrid"
       id="grid2985"
       empspacing="5"
       visible="true"
       enabled="true"
       snapvisiblegridlinesonly="true" />
  </sodipodi:namedview>
  <metadata
     id="metadata7">
    <rdf:RDF>
      <cc:Work
         rdf:about="">
        <dc:format>image/svg+xml</dc:format>
        <dc:type
           rdf:resource="http://purl.org/dc/dcmitype/StillImage" />
        <dc:title />
      </cc:Work>
    </rdf:RDF>
  </metadata>
  <g
     inkscape:label="Capa 1"
     inkscape:groupmode="layer"
     id="layer1"
     transform="translate(0,-362.36224)">
    <path
       style="fill:none;stroke:none"
       d="m 158.90525,951.46697 93.0544,-124.07252 0,-217.12692 -93.0544,-124.07252 -93.054387,124.07252 0,217.12692 93.054387,124.07252 45.72173,54.32563 -42.2937,47.6069 -158.3327906,-181.97304 0,-318.45282 158.3327906,-181.97302 158.33277,181.97302 0,318.45282 -121.20138,137.35954"
       id="path2987"
       inkscape:connector-curvature="0"
       sodipodi:nodetypes="ccccccccccccccc" />
    <path
       style="fill:#2bd4ff;fill-opacity:1;stroke:none"
       d="M 5.1595124,553.21602 160.58243,371.7535 157.64993,486.82728 5.1595124,691.39686 z"
       id="path3813"
       inkscape:connector-curvature="0"
       sodipodi:nodetypes="ccccc" />
    <path
       style="fill:#00c0f0;fill-opacity:1;stroke:none"
       d="M 160.58243,374.68602 320.40411,552.10273 251.49018,610.75291 106.33103,434.80242 z"
       id="path3815"
       inkscape:connector-curvature="0"
       sodipodi:nodetypes="ccccc" />
    <path
       style="fill:#2bd4ff;fill-opacity:1;stroke:none"
       d="m 318.93786,552.10273 -68.91394,-77.71145 1.46626,351.90093 67.44768,45.45388 z"
       id="path3817"
       inkscape:connector-curvature="0"
       sodipodi:nodetypes="ccccc" />
    <path
       style="fill:#2bd4ff;fill-opacity:1;stroke:none"
       d="M 213.36757,984.64766 63.809673,827.75847 0.76075443,871.74609 160.58243,1052.0954 z"
       id="path3821"
       inkscape:connector-curvature="0"
       sodipodi:nodetypes="ccccc" />
    <path
       style="fill:#00c0f0;fill-opacity:1;stroke:none"
       d="M 320.4041,870.27983 160.58243,1055.0279 113.66232,997.84391 320.40411,741.2495 z"
       id="path3819"
       inkscape:connector-curvature="0"
       sodipodi:nodetypes="ccccc" />
    <path
       style="fill:#00c0f0;fill-opacity:1;stroke:none"
       d="M 6.6257704,550.6365 65.275923,605.64489 66.742183,945.95216 2.2270124,870.27983 z"
       id="path3811"
       inkscape:connector-curvature="0"
       sodipodi:nodetypes="ccccc" />
    <path
       style="fill:none;stroke:none"
       d="M 65.275923,609.28665 3.6932694,590.22534 6.6257704,553.56899 z"
       id="path3823"
       inkscape:connector-curvature="0" />
    <path
       style="fill:none;stroke:none"
       d="M 65.275923,832.15723 16.889546,890.80738 -2.1717466,871.74609 z"
       id="path3825"
       inkscape:connector-curvature="0" />
    <path
       style="fill:none;stroke:none"
       d="m 157.64993,949.45753 17.59504,85.04277 -14.66254,19.0613 z"
       id="path3827"
       inkscape:connector-curvature="0" />
    <path
       style="fill:none;stroke:none"
       d="m 250.02392,829.22471 57.1839,55.71765 13.19629,-11.73003 z"
       id="path3829"
       inkscape:connector-curvature="0" />
    <path
       style="fill:none;stroke:none"
       d="m 251.49018,613.6854 65.98142,-36.65634 0,-26.39256 z"
       id="path3831"
       inkscape:connector-curvature="0" />
    <path
       sodipodi:nodetypes="ccccc"
       inkscape:connector-curvature="0"
       id="path3833"
       d="m 486.09079,510.77279 -68.91394,-131.24948 1.46626,594.33719 67.44768,76.7686 z"
       style="fill:#2bd4ff;fill-opacity:1;stroke:none" />
    <path
       sodipodi:nodetypes="ccccc"
       inkscape:connector-curvature="0"
       id="path3835"
       d="M 725.09016,748.85668 486.09079,1049.1277 418.64311,972.55859 660.57501,685.79978 z"
       style="fill:#00c0f0;fill-opacity:1;stroke:none" />
    <path
       sodipodi:nodetypes="ccccc"
       inkscape:connector-curvature="0"
       id="path3837"
       d="m 675.23756,655.77268 -43.98764,-58.55286 1.46626,267.24122 93.84025,-111.10028 z"
       style="fill:#2bd4ff;fill-opacity:1;stroke:none" />
    <path
       style="fill:#00c0f0;fill-opacity:1;stroke:none"
       d="M 415.71061,381.02468 659.10875,598.72116 728.02268,756.36347 418.64313,477.11139 z"
       id="path3841"
       inkscape:connector-curvature="0"
       sodipodi:nodetypes="ccccc" />
    <path
       style="fill:#00c0f0;fill-opacity:1;stroke:none"
       d="M 1089.0408,450.93121 889.63031,1049.1628 822.18263,974.38385 1024.5256,389.34856 z"
       id="path3843"
       inkscape:connector-curvature="0"
       sodipodi:nodetypes="ccccc" />
    <path
       sodipodi:nodetypes="ccccc"
       inkscape:connector-curvature="0"
       id="path3845"
       d="M 788.45878,478.79003 962.94303,826.29221 1005.4643,703.12688 851.50768,395.21357 z"
       style="fill:#2bd5ff;fill-opacity:1;stroke:none" />
  </g>
</svg>
