<?xml version="1.0" encoding="UTF-8" standalone="no"?>
<!-- Created with Inkscape (http://www.inkscape.org/) -->

<svg
   xmlns:dc="http://purl.org/dc/elements/1.1/"
   xmlns:cc="http://creativecommons.org/ns#"
   xmlns:rdf="http://www.w3.org/1999/02/22-rdf-syntax-ns#"
   xmlns:svg="http://www.w3.org/2000/svg"
   xmlns="http://www.w3.org/2000/svg"
   xmlns:sodipodi="http://sodipodi.sourceforge.net/DTD/sodipodi-0.dtd"
   xmlns:inkscape="http://www.inkscape.org/namespaces/inkscape"
   width="1052.3622"
   height="744.09448"
   id="svg2"
   version="1.1"
   inkscape:version="0.48.5 r10040"
   sodipodi:docname="ODY.svg">
  <defs
     id="defs4" />
  <sodipodi:namedview
     id="base"
     pagecolor="#ffffff"
     bordercolor="#666666"
     borderopacity="1.0"
     inkscape:pageopacity="0.0"
     inkscape:pageshadow="2"
     inkscape:zoom="0.70107239"
     inkscape:cx="528"
     inkscape:cy="419.73134"
     inkscape:document-units="px"
     inkscape:current-layer="layer1"
     showgrid="false"
     inkscape:window-width="1280"
     inkscape:window-height="740"
     inkscape:window-x="-8"
     inkscape:window-y="-8"
     inkscape:window-maximized="1">
    <inkscape:grid
       type="xygrid"
       id="grid2985"
       empspacing="5"
       visible="true"
       enabled="true"
       snapvisiblegridlinesonly="true" />
  </sodipodi:namedview>
  <metadata
     id="metadata7">
    <rdf:RDF>
      <cc:Work
         rdf:about="">
        <dc:format>image/svg+xml</dc:format>
        <dc:type
           rdf:resource="http://purl.org/dc/dcmitype/StillImage" />
        <dc:title></dc:title>
      </cc:Work>
    </rdf:RDF>
  </metadata>
  <g
     inkscape:label="Capa 1"
     inkscape:groupmode="layer"
     id="layer1"
     transform="translate(0,-308.2677)">
    <path
       style="fill:none;stroke:none"
       d="m 192.57876,869.36562 80.03927,-106.71902 0,-186.75829 -80.03927,-106.71902 -80.03926,106.71902 0,186.75829 80.03926,106.71902 39.32682,46.72733 -36.37826,40.94832 -136.187439,-156.52123 0,-273.91216 136.187439,-156.52122 136.18743,156.52122 0,273.91216 L 227.4653,918.6676"
       id="path2987"
       inkscape:connector-curvature="0"
       sodipodi:nodetypes="ccccccccccccccc" />
    <path
       style="fill:#2bd4ff;fill-opacity:1;stroke:none"
       d="M 60.336797,526.81636 194.02136,370.73424 191.49901,469.71313 60.336797,645.67042 z"
       id="path3813"
       inkscape:connector-curvature="0"
       sodipodi:nodetypes="ccccc" />
    <path
       style="fill:#00c0f0;fill-opacity:1;stroke:none"
       d="M 194.02136,373.2566 331.48945,525.85878 272.21422,576.3058 147.35787,424.96477 z"
       id="path3815"
       inkscape:connector-curvature="0"
       sodipodi:nodetypes="ccccc" />
    <path
       style="fill:#2bd4ff;fill-opacity:1;stroke:none"
       d="m 330.22828,525.85878 -59.27524,-66.84228 1.26118,302.68203 58.01406,39.09643 z"
       id="path3817"
       inkscape:connector-curvature="0"
       sodipodi:nodetypes="ccccc" />
    <path
       style="fill:#2bd4ff;fill-opacity:1;stroke:none"
       d="M 239.42366,897.90546 110.78381,762.95971 56.553274,800.79496 194.02136,955.9195 z"
       id="path3821"
       inkscape:connector-curvature="0"
       sodipodi:nodetypes="ccccc" />
    <path
       style="fill:#00c0f0;fill-opacity:1;stroke:none"
       d="M 331.48944,799.53378 194.02136,958.44185 153.66377,909.25601 331.48945,688.55038 z"
       id="path3819"
       inkscape:connector-curvature="0"
       sodipodi:nodetypes="ccccc" />
    <path
       style="fill:#00c0f0;fill-opacity:1;stroke:none"
       d="m 61.597975,524.59762 50.447005,47.3146 1.26118,292.70992 -55.491707,-65.08836 z"
       id="path3811"
       inkscape:connector-curvature="0"
       sodipodi:nodetypes="ccccc" />
    <path
       style="fill:none;stroke:none"
       d="M 112.04498,575.04462 59.075631,558.64934 61.597975,527.11996 z"
       id="path3823"
       inkscape:connector-curvature="0" />
    <path
       style="fill:none;stroke:none"
       d="M 112.04498,766.74323 70.4262,817.19023 54.03093,800.79496 z"
       id="path3825"
       inkscape:connector-curvature="0" />
    <path
       style="fill:none;stroke:none"
       d="m 191.49901,867.63723 15.1341,73.14817 -12.61175,16.39527 z"
       id="path3827"
       inkscape:connector-curvature="0" />
    <path
       style="fill:none;stroke:none"
       d="m 270.95304,764.22087 49.18583,47.92466 11.35058,-10.0894 z"
       id="path3829"
       inkscape:connector-curvature="0" />
    <path
       style="fill:none;stroke:none"
       d="m 272.21422,578.82814 56.75288,-31.52937 0,-22.70115 z"
       id="path3831"
       inkscape:connector-curvature="0" />
    <path
       sodipodi:nodetypes="ccccc"
       inkscape:connector-curvature="0"
       id="path3833"
       d="m 474.00223,501.16582 -59.27524,-110.25278 1.26118,499.25781 58.01406,64.48749 z"
       style="fill:#2bd4ff;fill-opacity:1;stroke:none" />
    <path
       sodipodi:nodetypes="ccccc"
       inkscape:connector-curvature="0"
       id="path3835"
       d="M 679.57376,701.16213 474.00223,953.39714 415.98817,889.07721 624.08207,648.19278 z"
       style="fill:#00c0f0;fill-opacity:1;stroke:none" />
    <path
       sodipodi:nodetypes="ccccc"
       inkscape:connector-curvature="0"
       id="path3837"
       d="m 636.69383,622.96928 -37.83527,-49.18584 1.26118,224.48918 80.71521,-93.32696 z"
       style="fill:#2bd4ff;fill-opacity:1;stroke:none" />
    <path
       style="fill:#00c0f0;fill-opacity:1;stroke:none"
       d="M 413.46583,392.17423 622.82089,575.04461 682.09612,707.46801 415.98819,472.88942 z"
       id="path3841"
       inkscape:connector-curvature="0"
       sodipodi:nodetypes="ccccc" />
    <path
       style="fill:#00c0f0;fill-opacity:1;stroke:none"
       d="M 976.6202,440.83769 805.10037,955.39714 747.08631,891.07721 921.12849,387.86835 z"
       id="path3843"
       inkscape:connector-curvature="0"
       sodipodi:nodetypes="ccccc" />
    <path
       sodipodi:nodetypes="ccccc"
       inkscape:connector-curvature="0"
       id="path3845"
       d="M 698.94733,463.12507 856.1591,803.38878 892.73319,693.1709 758.88338,408.35473 z"
       style="fill:#2bd5ff;fill-opacity:1;stroke:none" />
    <path
       style="fill:#2bd5ff;fill-opacity:1;stroke:none"
       d="m 1139.6686,448.02219 -12.2904,199.48305 54.8342,-160.72094 z"
       id="path3847"
       inkscape:connector-curvature="0" />
    <path
       style="fill:#2bd5ff;fill-opacity:1;stroke:none"
       d="m 1310.4205,554.12726 -13.2359,210.82806 -43.4892,-49.1617 z"
       id="path3849"
       inkscape:connector-curvature="0" />
    <path
       style="fill:#00c0f0;fill-opacity:1;stroke:none"
       d="m 1161.5635,570.41769 -3.7816,122.90425 -35.9259,-71.85172 z"
       id="path3851"
       inkscape:connector-curvature="0" />
  </g>
</svg>
