<?xml version="1.0" encoding="UTF-8" standalone="no"?>
<!-- Created with Inkscape (http://www.inkscape.org/) -->

<svg
   xmlns:dc="http://purl.org/dc/elements/1.1/"
   xmlns:cc="http://creativecommons.org/ns#"
   xmlns:rdf="http://www.w3.org/1999/02/22-rdf-syntax-ns#"
   xmlns:svg="http://www.w3.org/2000/svg"
   xmlns="http://www.w3.org/2000/svg"
   xmlns:xlink="http://www.w3.org/1999/xlink"
   xmlns:sodipodi="http://sodipodi.sourceforge.net/DTD/sodipodi-0.dtd"
   xmlns:inkscape="http://www.inkscape.org/namespaces/inkscape"
   width="1260"
   height="765"
   id="svg3842"
   version="1.1"
   inkscape:version="0.48.5 r10040"
   sodipodi:docname="pantalla.svg"
   inkscape:export-filename="D:\Documents\GitHub\Theweb\pantalla.png"
   inkscape:export-xdpi="83.14286"
   inkscape:export-ydpi="83.14286">
  <defs
     id="defs3844">
    <linearGradient
       id="linearGradient4375">
      <stop
         style="stop-color:#9853a6;stop-opacity:1;"
         offset="0"
         id="stop4377" />
      <stop
         id="stop4383"
         offset="1"
         style="stop-color:#661377;stop-opacity:1;" />
      <stop
         style="stop-color:#6b0d7f;stop-opacity:0.92805755;"
         offset="1"
         id="stop4379" />
    </linearGradient>
    <radialGradient
       inkscape:collect="always"
       xlink:href="#linearGradient4375"
       id="radialGradient4381"
       cx="627.65112"
       cy="384.95432"
       fx="627.65112"
       fy="384.95432"
       r="625.34784"
       gradientTransform="matrix(0.65691543,0.83290981,-0.99051779,0.57955623,600.09645,-330.00623)"
       gradientUnits="userSpaceOnUse" />
  </defs>
  <sodipodi:namedview
     inkscape:document-units="mm"
     pagecolor="#ffffff"
     bordercolor="#666666"
     borderopacity="1.0"
     inkscape:pageopacity="0.0"
     inkscape:pageshadow="2"
     inkscape:zoom="0.32444231"
     inkscape:cx="551.24145"
     inkscape:cy="647.87342"
     inkscape:current-layer="layer1"
     id="namedview3846"
     showgrid="false"
     units="px"
     showguides="true"
     inkscape:guide-bbox="true"
     inkscape:window-width="1280"
     inkscape:window-height="740"
     inkscape:window-x="-8"
     inkscape:window-y="-8"
     inkscape:window-maximized="1" />
  <metadata
     id="metadata3848">
    <rdf:RDF>
      <cc:Work
         rdf:about="">
        <dc:format>image/svg+xml</dc:format>
        <dc:type
           rdf:resource="http://purl.org/dc/dcmitype/StillImage" />
        <dc:title></dc:title>
      </cc:Work>
    </rdf:RDF>
  </metadata>
  <g
     inkscape:label="Layer 1"
     inkscape:groupmode="layer"
     id="layer1"
     transform="translate(0,20.90552)">
    <rect
       style="fill:#e3e3e3;fill-opacity:1;fill-rule:nonzero;stroke:none"
       id="rect4417"
       width="1257.6057"
       height="135.89511"
       x="2.3033071"
       y="-18.603453"
       ry="30.860518" />
    <rect
       style="fill:url(#radialGradient4381);fill-opacity:1;fill-rule:nonzero;stroke:none"
       id="rect3857"
       width="1257.6056"
       height="670.26233"
       x="2.3033071"
       y="80.742058" />
    <flowRoot
       xml:space="preserve"
       id="flowRoot4393"
       style="fill:black;stroke:none;stroke-opacity:1;stroke-width:1px;stroke-linejoin:miter;stroke-linecap:butt;fill-opacity:1;font-family:Open Sans;font-style:normal;font-weight:normal;font-size:72px;line-height:125%;letter-spacing:0px;word-spacing:0px;-inkscape-font-specification:Open Sans;font-stretch:normal;font-variant:normal"><flowRegion
         id="flowRegion4395"><rect
           id="rect4397"
           width="1107.8906"
           height="619.5896"
           x="69.099213"
           y="85.524429"
           style="font-size:72px" /></flowRegion><flowPara
         id="flowPara4399"></flowPara></flowRoot>    <text
       xml:space="preserve"
       style="font-size:22px;font-style:normal;font-variant:normal;font-weight:normal;font-stretch:normal;line-height:125%;letter-spacing:0px;word-spacing:0px;fill:#000000;fill-opacity:1;stroke:none;font-family:Open Sans;-inkscape-font-specification:Open Sans"
       x="165.8381"
       y="83.221123"
       id="text4401"
       sodipodi:linespacing="125%"
       transform="translate(0,-20.90552)"><tspan
         sodipodi:role="line"
         id="tspan4403"></tspan></text>
    <rect
       style="fill:#ffffff;fill-opacity:1;fill-rule:nonzero;stroke:none"
       id="rect4419"
       width="974.29889"
       height="27.639685"
       x="176.97606"
       y="21.46269"
       ry="13.819842" />
    <path
       sodipodi:type="arc"
       style="fill:#ff1c1c;fill-opacity:1;fill-rule:nonzero;stroke:none"
       id="path4423"
       sodipodi:cx="56.431023"
       sodipodi:cy="49.82317"
       sodipodi:rx="19.57811"
       sodipodi:ry="19.57811"
       d="m 76.009132,49.82317 a 19.57811,19.57811 0 1 1 -39.156219,0 19.57811,19.57811 0 1 1 39.156219,0 z"
       transform="matrix(0.70588235,0,0,0.70588235,10.962241,-23.706607)" />
    <path
       sodipodi:type="arc"
       style="fill:#edf024;fill-opacity:1;fill-rule:nonzero;stroke:none"
       id="path4431"
       sodipodi:cx="56.431023"
       sodipodi:cy="49.82317"
       sodipodi:rx="19.57811"
       sodipodi:ry="19.57811"
       d="m 76.009132,49.82317 a 19.57811,19.57811 0 1 1 -39.156219,0 19.57811,19.57811 0 1 1 39.156219,0 z"
       transform="matrix(0.70588235,0,0,0.70588235,54.962241,-23.706607)" />
    <path
       transform="matrix(0.70588235,0,0,0.70588235,98.96224,-23.706607)"
       d="m 76.009132,49.82317 a 19.57811,19.57811 0 1 1 -39.156219,0 19.57811,19.57811 0 1 1 39.156219,0 z"
       sodipodi:ry="19.57811"
       sodipodi:rx="19.57811"
       sodipodi:cy="49.82317"
       sodipodi:cx="56.431023"
       id="path4433"
       style="fill:#00e822;fill-opacity:1;fill-rule:nonzero;stroke:none"
       sodipodi:type="arc" />
    <path
       sodipodi:nodetypes="cccccc"
       inkscape:connector-curvature="0"
       id="path5037"
       d="m 1207.5443,309.38075 -26.4271,302.78003 -122.3443,32.78207 0,-24.47636 0,-311.84084 z"
       style="fill:#eab332;fill-opacity:1;stroke:none;display:inline" />
    <path
       style="fill:#0084c4;fill-opacity:1;stroke:none;display:inline"
       d="m 55.342362,309.92519 298.822698,0 -23.4356,302.85905 -125.5204,33.6331 -121.275598,-32.49572 z"
       id="path4446"
       inkscape:connector-curvature="0"
       sodipodi:nodetypes="cccccc" />
    <path
       inkscape:connector-curvature="0"
       id="path4448"
       d="m 201.12576,336.26074 126.4183,0 -21.6257,261.86419 -103.8639,29.08053 m 0,0 -100.3514,-28.09709 -26.995498,-262.84763 126.418198,0 z"
       style="fill:#2bb9e9;fill-opacity:1;stroke:#0084c5;stroke-width:1.93649924;stroke-miterlimit:4;stroke-opacity:1;stroke-dasharray:none;display:inline"
       sodipodi:nodetypes="ccccccccc" />
    <path
       style="fill:#0084c5;fill-opacity:1;fill-rule:nonzero;stroke:#0084c5;stroke-width:0.7439456;stroke-miterlimit:4;stroke-opacity:1;stroke-dasharray:none;display:inline"
       d="m 151.51416,611.73477 c -45.0534,-12.70174 -48.0503,-13.64992 -48.5611,-15.36334 -0.426,-1.42927 -26.702098,-256.26601 -26.654098,-258.5035 0.01,-0.30713 27.820198,-0.55841 61.808098,-0.55841 l 61.7961,0 0,19.84332 0,19.84333 -48.0223,-0.40672 c -32.6964,-0.27692 -48.0223,-0.1622 -48.0223,0.35972 0,0.99372 3.6365,30.71424 4.1458,33.88287 l 0.3889,2.41974 45.9411,0.0194 45.9411,0.0193 -44.2997,18.57246 c -29.2226,12.2515 -44.2148,18.8968 -44.0504,19.52538 0.137,0.52408 0.886,7.15111 1.6642,14.72672 0.7783,7.5756 1.608,15.19776 1.8439,16.93811 l 0.4289,3.16425 25.0823,0 c 13.7953,0 32.872,0.22195 42.3927,0.49118 l 17.3103,0.48945 0,28.91786 c 0,15.90478 -0.2512,28.91263 -0.5583,28.90629 -0.3072,-0.006 -9.772,-2.47105 -21.0331,-5.47707 l -20.4746,-5.46553 -0.5279,-4.388 c -0.2903,-2.41319 -0.7402,-8.6129 -0.9996,-13.77691 l -0.4718,-9.38914 -19.3482,-0.54061 c -10.6415,-0.29736 -19.5097,-0.37911 -19.7071,-0.1818 -0.6736,0.67362 6.3477,55.84152 7.1719,56.3509 0.4483,0.27708 17.717,5.66816 38.3749,11.98025 l 37.5598,11.47655 0.01,19.9162 c 0,10.95394 -0.2443,19.87769 -0.5514,19.83053 -0.3071,-0.0471 -22.166,-6.17741 -48.5752,-13.62288 l 3e-4,0 z"
       id="path4976"
       inkscape:connector-curvature="0" />
    <path
       style="fill:#0084c5;fill-opacity:1;fill-rule:nonzero;stroke:#0084c5;stroke-width:0.7439456;stroke-miterlimit:4;stroke-opacity:1;stroke-dasharray:none;display:inline"
       d="m 144.88286,630.0226 c -39.5809,-10.65864 -60.059098,-16.49784 -60.447998,-17.23631 -0.3235,-0.61423 -6.8117,-67.95713 -14.4184,-149.65088 -7.6066,-81.69376 -13.9844,-149.45543 -14.1727,-150.58153 l -0.3425,-2.04753 149.174198,0 149.1744,0 -0.367,4.65337 c -0.2019,2.5593 -5.4505,70.38717 -11.6636,150.72854 -6.2131,80.3414 -11.4854,146.26407 -11.7162,146.49486 -0.3089,0.30886 -117.1474,31.80607 -124.2436,33.49345 -0.6143,0.14612 -28.0537,-6.98824 -60.9766,-15.85397 l 0,0 z m 113.8384,-19.59821 c 25.1837,-7.02935 45.9146,-12.87781 46.0686,-12.99663 0.2221,-0.17153 21.5788,-255.70993 21.6615,-259.18757 0.017,-0.73727 -12.896,-0.93067 -62.1462,-0.93067 l -62.1684,0 0,19.73011 c 0,18.26748 -0.097,19.73528 -1.3029,19.80026 -0.7166,0.0386 -22.4798,0.01 -48.3627,-0.0638 -25.8828,-0.0736 -47.3511,0.0463 -47.7072,0.26638 -0.3563,0.2202 -0.072,5.02135 0.6316,10.67327 0.7036,5.65014 1.6881,13.70461 2.1878,17.89879 l 0.9085,7.62582 45.8513,0.19186 45.8512,0.19186 -23.0399,9.63697 c -34.1715,14.29297 -63.7096,27.00797 -64.3792,27.71279 -0.5344,0.56238 2.549,32.10024 3.3546,34.31141 0.2643,0.72546 7.6237,0.93069 33.3763,0.93069 18.1706,0 37.6133,0.21948 43.2062,0.48769 l 10.1689,0.48768 0,29.38043 0,29.3804 -1.6752,-0.41682 c -0.9213,-0.22929 -10.9388,-2.85276 -22.2611,-5.82998 l -20.586,-5.41316 -0.4288,-3.37735 c -0.2358,-1.85756 -0.6541,-7.90038 -0.9296,-13.42855 -0.2961,-5.94198 -0.8362,-10.27481 -1.3212,-10.59818 -0.4512,-0.30085 -9.1126,-0.55214 -19.2475,-0.55839 l -18.4272,-0.0115 0,2.4961 c 0,4.77127 6.2145,52.36107 6.9311,53.07769 0.2371,0.23717 18.6618,5.995 49.8619,15.58225 14.0186,4.30768 25.9577,7.59418 26.7148,7.3539 1.3066,-0.41467 1.3688,0.51447 1.3688,20.41007 l 0,20.84451 5.0257,-1.43894 c 2.764,-0.79139 25.6304,-7.19014 50.8143,-14.21945 z m -57.562,10.72921 c -0.1864,-0.71184 -0.332,0.0459 -0.3238,1.68389 0.01,1.63798 0.1607,2.22036 0.3389,1.29423 0.178,-0.9261 0.1713,-2.26627 -0.016,-2.97812 l 0,0 z m -95.0671,-22.29706 c -0.6142,-0.22586 -1.7031,-0.92143 -2.4197,-1.54568 -1.1701,-1.01933 -1.303,-1.01501 -1.303,0.0426 0,1.13328 1.3713,1.82808 3.7227,1.88616 0.9927,0.0243 0.9927,-0.0173 0,-0.38306 l 0,-3e-5 z"
       id="path4978"
       inkscape:connector-curvature="0" />
    <path
       style="fill:#0084c5;fill-opacity:1;fill-rule:nonzero;stroke:#0084c5;stroke-width:0.7439456;stroke-miterlimit:4;stroke-opacity:1;stroke-dasharray:none;display:inline"
       d="M 186.50156,641.38071 C 157.96406,633.79268 94.332062,616.58345 88.932162,614.9931 l -4.8753,-1.43579 -1.664,-17.32361 c -3.527,-36.71812 -26.9288,-285.02349 -26.9288,-285.72834 0,-0.49249 50.396098,-0.7435 149.278598,-0.7435 118.9802,0 149.2786,0.18895 149.2786,0.93131 0,1.30958 -10.856,141.28275 -17.5103,225.77176 -3.0636,38.89802 -5.5702,71.98315 -5.5702,73.52252 0,1.53937 -0.1985,2.79884 -0.441,2.79884 -0.2425,0 -27.7995,7.34802 -61.2377,16.32891 -33.4382,8.9809 -61.6344,16.50595 -62.6581,16.72232 -1.0815,0.22858 -9.5035,-1.63862 -20.1024,-4.45681 l 0,0 z m 67.7524,-30.07801 c 26.8218,-7.48734 49.1395,-13.98573 49.595,-14.44083 0.8309,-0.83041 22.5354,-257.65615 21.8339,-258.35765 -0.1917,-0.19168 -27.9841,-0.45506 -61.7611,-0.58542 l -61.4127,-0.237 -0.3723,19.73008 -0.3722,19.73011 -37.9712,-0.28898 c -20.8841,-0.15892 -42.7509,-0.0372 -48.5928,0.27046 l -10.6216,0.55946 0.5028,4.94125 c 0.2766,2.71769 1.209,10.6369 2.0721,17.59829 l 1.5692,12.65703 45.9914,0.37228 45.9915,0.37225 -29.9966,12.61567 c -34.6381,14.56781 -56.5269,24.0813 -57.4306,24.96096 -0.5771,0.56168 2.1408,30.99918 2.9582,33.12923 0.4297,1.12002 22.0037,1.83769 59.4658,1.97824 13.921,0.0521 25.7312,0.25619 26.2448,0.45328 1.3621,0.52267 1.3652,59.01932 0,59.01205 -1.3769,-0.008 -43.1027,-11.02083 -43.5865,-11.50458 -0.2275,-0.22749 -0.8647,-6.33708 -1.4161,-13.57681 -0.5514,-7.23973 -1.1424,-13.3031 -1.3134,-13.47411 -0.1709,-0.17091 -8.7465,-0.49431 -19.0567,-0.7185 l -18.7457,-0.40757 0.5047,4.76654 c 0.9923,9.37004 5.6301,45.26099 6.208,48.04244 l 0.589,2.83469 17.4684,5.47361 c 29.5678,9.2649 51.0193,15.67031 55.755,16.64847 l 4.524,0.93437 0,10.15675 c 0,16.14817 0.8563,30.60892 1.7923,30.26565 0.4474,-0.16415 22.7586,-6.42438 49.5803,-13.91171 l 2e-4,0 z"
       id="path4980"
       inkscape:connector-curvature="0" />
    <path
       sodipodi:nodetypes="cccccc"
       inkscape:connector-curvature="0"
       id="path5007"
       d="m 431.40276,232.58277 398.4859,0 -31.2516,403.86863 -167.3841,44.85037 -161.7234,-43.33365 z"
       style="fill:#0084c4;fill-opacity:1;stroke:none;display:inline" />
    <path
       sodipodi:nodetypes="ccccccccc"
       style="fill:#f67b37;fill-opacity:1;stroke:none;display:inline"
       d="m 625.80796,267.70167 168.5814,0 -28.8384,349.20124 -138.5046,38.77949 m 0,0 -133.8207,-37.46806 -35.999,-350.51267 168.5813,0 z"
       id="path5009"
       inkscape:connector-curvature="0" />
    <path
       inkscape:connector-curvature="0"
       id="path5011"
       d="m 559.64976,635.05186 c -60.0795,-16.93801 -64.0761,-18.20239 -64.7571,-20.48734 -0.5681,-1.90589 -35.6078,-341.73585 -35.5439,-344.7196 0.01,-0.40958 37.0988,-0.74464 82.4224,-0.74464 l 82.4064,0 0,26.46148 0,26.46148 -64.0387,-0.54238 c -43.6014,-0.36929 -64.0387,-0.21635 -64.0387,0.47968 0,1.32517 4.8493,40.95806 5.5284,45.18351 l 0.5186,3.22677 61.2633,0.026 61.2635,0.0258 -59.0744,24.76676 c -38.9691,16.33761 -58.9614,25.19924 -58.7422,26.03746 0.1828,0.69888 1.1815,9.53617 2.2193,19.6384 1.0378,10.10221 2.1443,20.26651 2.4589,22.5873 l 0.5718,4.21958 33.4478,0.002 c 18.3963,6.4e-4 43.8355,0.29597 56.5315,0.65497 l 23.0837,0.65273 0,38.56253 c 0,21.20934 -0.3351,38.55556 -0.7446,38.5471 -0.4095,-0.008 -13.0311,-3.29514 -28.0479,-7.30377 l -27.3034,-7.28839 -0.704,-5.85148 c -0.3871,-3.218 -0.987,-11.48545 -1.333,-18.37183 l -0.6291,-12.52057 -25.8012,-0.72091 c -14.1907,-0.39652 -26.0166,-0.50553 -26.2799,-0.24242 -0.8983,0.89826 8.4648,74.46579 9.564,75.14506 0.5977,0.36944 23.6259,7.55858 51.1737,15.9759 l 50.0868,15.30417 0.01,26.55868 c 0.01,14.60729 -0.3258,26.50729 -0.7354,26.44444 -0.4095,-0.0628 -29.5587,-8.23772 -64.7759,-18.16638 l 0,0 z"
       style="fill:#0084c5;fill-opacity:1;fill-rule:nonzero;stroke:#0084c5;stroke-width:0.9920665;stroke-miterlimit:4;stroke-opacity:1;stroke-dasharray:none;display:inline" />
    <path
       inkscape:connector-curvature="0"
       id="path5013"
       d="m 550.80686,659.4391 c -52.7819,-14.2135 -80.09,-22.00022 -80.6086,-22.98498 -0.4314,-0.8191 -9.0837,-90.62219 -19.2273,-199.56249 -10.1436,-108.94024 -18.6484,-199.30189 -18.8996,-200.80356 l -0.4567,-2.73035 198.9269,0 198.927,0 -0.4894,6.20532 c -0.2692,3.41288 -7.2684,93.86276 -15.5536,200.99957 -8.2853,107.13687 -15.316,195.04611 -15.6237,195.35388 -0.4119,0.41182 -156.2185,42.41402 -165.6816,44.66418 -0.819,0.19484 -37.41,-9.31894 -81.3134,-21.14157 l 0,0 z m 151.8057,-26.13465 c 33.583,-9.37376 61.2281,-17.17281 61.4334,-17.33123 0.2963,-0.22874 28.7759,-340.9944 28.8864,-345.63182 0.023,-0.9832 -17.1973,-1.24112 -82.8734,-1.24112 l -82.9028,0 0,26.31046 c 0,24.36008 -0.1288,26.31744 -1.7376,26.40412 -0.9555,0.0512 -29.9772,0.0135 -64.4925,-0.0851 -34.5152,-0.0982 -63.1437,0.0619 -63.6187,0.35521 -0.4751,0.29371 -0.096,6.6961 0.8424,14.23306 0.9382,7.53458 2.2511,18.27537 2.9174,23.86838 l 1.2116,10.16919 61.1436,0.25586 61.1435,0.25585 -30.7243,12.85108 c -45.5683,19.05997 -84.9578,36.01567 -85.851,36.95558 -0.7126,0.74994 3.3993,42.80631 4.4735,45.75497 0.3525,0.96741 10.1664,1.24108 44.508,1.24108 24.2309,0 50.1582,0.29266 57.6164,0.65034 l 13.5605,0.65033 0,39.17939 0,39.17937 -2.2339,-0.55586 c -1.2287,-0.30576 -14.5872,-3.80421 -29.6857,-7.77442 l -27.4518,-7.21849 -0.5718,-4.50378 c -0.3146,-2.4771 -0.8724,-10.53536 -1.2397,-17.90727 -0.3949,-7.92373 -1.1151,-13.70165 -1.7619,-14.13286 -0.6016,-0.40122 -12.1518,-0.73629 -25.6669,-0.74465 l -24.573,-0.0154 0,3.32863 c 0,6.36258 8.287,69.82455 9.2427,70.78016 0.3162,0.31626 24.8859,7.99447 66.4919,20.77925 18.6941,5.74434 34.6151,10.12699 35.6247,9.80657 1.7423,-0.55298 1.8254,0.68608 1.8254,27.21724 l 0,27.79656 6.7017,-1.91881 c 3.686,-1.05534 34.1788,-9.58821 67.7619,-18.962 z m -76.76,14.30765 c -0.2486,-0.94923 -0.4428,0.0612 -0.4318,2.24548 0.01,2.18426 0.2143,2.96088 0.4518,1.72592 0.2375,-1.23503 0.2285,-3.02213 -0.021,-3.9714 l 0,0 z m -126.7739,-29.73359 c -0.8191,-0.30117 -2.2711,-1.22872 -3.2268,-2.06121 -1.5603,-1.3593 -1.7375,-1.35353 -1.7375,0.057 0,1.51128 1.8287,2.4378 4.9643,2.51523 1.3238,0.0325 1.3238,-0.0234 0,-0.51082 l 0,0 z"
       style="fill:#0084c5;fill-opacity:1;fill-rule:nonzero;stroke:#0084c5;stroke-width:0.9920665;stroke-miterlimit:4;stroke-opacity:1;stroke-dasharray:none;display:inline" />
    <path
       inkscape:connector-curvature="0"
       id="path5015"
       d="m 606.30626,674.58532 c -38.0553,-10.11878 -122.9099,-33.06762 -130.1109,-35.18836 l -6.5012,-1.91467 -2.219,-23.1014 c -4.7034,-48.96434 -35.9101,-380.08457 -35.9101,-381.02454 0,-0.65675 67.2043,-0.99149 199.066,-0.99149 158.6626,0 199.0661,0.25203 199.0661,1.24201 0,1.74629 -14.4768,188.40336 -23.3504,301.07118 -4.0854,51.8713 -7.4281,95.99101 -7.4281,98.04376 0,2.05275 -0.2646,3.73231 -0.5878,3.73231 -0.3235,0 -37.0712,9.79872 -81.6619,21.7749 -44.5905,11.97626 -82.1906,22.01104 -83.5558,22.29956 -1.4422,0.30482 -12.6732,-2.18513 -26.8069,-5.94326 z m 90.3492,-40.1096 c 35.7673,-9.98449 65.5285,-18.65025 66.1359,-19.25718 1.1081,-1.10733 30.0514,-343.58963 29.1161,-344.52514 -0.2558,-0.25557 -37.3176,-0.60679 -82.3598,-0.78065 l -81.8952,-0.31607 c 0,0 3.5888,382.66855 2.8882,383.4306 0.5967,-0.21891 30.3491,-8.56706 66.1165,-18.55156 l 10e-5,0 z"
       style="fill:#ec6432;fill-opacity:1;fill-rule:nonzero;stroke:none;display:inline"
       sodipodi:nodetypes="cscssssssssscccccccccc" />
    <path
       style="fill:none;stroke:none;display:inline"
       d="m 750.50606,326.12797 -121.574,0 -122.9878,0 13.4297,147.72661 108.8512,0 60.0802,0 -4.2409,62.2007 -54.6673,14.64807 -54.8758,-14.70391 -4.9478,-37.40594 -48.7859,0.70682 6.3615,74.21674 102.3864,27.43436 100.6008,-26.9559 12.5947,-148.91192 -114.5059,0 -65.7348,0 -3.5341,-49.47783 188.7225,-0.70682 z"
       id="path5023"
       inkscape:connector-curvature="0"
       sodipodi:nodetypes="cccccccccccccccccccc" />
    <path
       style="fill:#eab332;fill-opacity:1;stroke:none;display:inline"
       d="m 911.48306,309.38075 26.4271,302.78003 122.34424,32.78207 0,-24.47636 0,-311.84084 z"
       id="path5035"
       inkscape:connector-curvature="0"
       sodipodi:nodetypes="cccccc" />
    <path
       style="fill:#f5ce35;fill-opacity:1;stroke:none;display:inline"
       d="m 1059.4751,334.29779 121.5652,0 -21.1418,258.98644 -98.8941,26.49861 z"
       id="path5039"
       inkscape:connector-curvature="0" />
    <path
       style="fill:#ffffff;fill-opacity:1;stroke:none;display:inline"
       d="m 966.60266,370.5408 93.62764,0 94.3829,0 -15.8564,188.76561 -79.4955,21.30077 -76.46714,-20.48932 -3.3556,-58.19618 36.99804,-3.02025 3.0203,30.95757 40.5465,10.8644 42.19,-11.30474 11.6461,-121.12474 -53.6092,0 -89.85234,0 z"
       id="path5043"
       inkscape:connector-curvature="0" />
    <path
       inkscape:connector-curvature="0"
       id="path5045"
       d="m 1060.0034,540.7234 -40.5465,-10.8644 -3.0203,-30.95757 -36.99804,3.02025 3.3556,58.19618 76.46714,20.48932 m 0.969,-210.06638 -93.62764,0 3.7753,37.75312 89.85234,0"
       style="fill:#e8e8e8;fill-opacity:1;stroke:none;display:inline"
       sodipodi:nodetypes="cccccccccc" />
    <flowRoot
       xml:space="preserve"
       id="flowRoot5055"
       style="font-size:28px;font-style:normal;font-variant:normal;font-weight:bold;font-stretch:normal;text-align:center;line-height:126.99999808999999000%;letter-spacing:0px;word-spacing:0px;text-anchor:middle;fill:#ffffff;fill-opacity:1;stroke:none;display:inline;font-family:Open Sans;-inkscape-font-specification:Open Sans Bold"
       transform="matrix(1.9380253,0,0,1.9380253,-1161.9186,-1247.0159)"><flowRegion
         id="flowRegion5057"><rect
           id="rect5059"
           width="152"
           height="44"
           x="628"
           y="757.18115"
           style="font-size:28px;font-weight:bold;text-align:center;line-height:126.99999808999999000%;text-anchor:middle;-inkscape-font-specification:Open Sans Bold;fill:#ffffff;fill-opacity:1" /></flowRegion><flowPara
         id="flowPara5061">css</flowPara></flowRoot>    <flowRoot
       transform="matrix(1.9380253,0,0,1.9380253,-724.08374,-1324.1377)"
       xml:space="preserve"
       id="flowRoot5055-2"
       style="font-size:28px;font-style:normal;font-variant:normal;font-weight:bold;font-stretch:normal;text-align:center;line-height:126.99999808999999000%;letter-spacing:0px;word-spacing:0px;text-anchor:middle;fill:#ffffff;fill-opacity:1;stroke:none;display:inline;font-family:Open Sans;-inkscape-font-specification:Open Sans Bold"><flowRegion
         id="flowRegion5057-1"><rect
           id="rect5059-2"
           width="200"
           height="44"
           x="598"
           y="761.18115"
           style="font-size:28px;font-weight:bold;text-align:center;line-height:126.99999808999999000%;text-anchor:middle;-inkscape-font-specification:Open Sans Bold;fill:#ffffff;fill-opacity:1" /></flowRegion><flowPara
         id="flowPara5061-1">HTML 5</flowPara></flowRoot>    <flowRoot
       transform="matrix(1.9380253,0,0,1.9380253,-305.47034,-1246.6167)"
       xml:space="preserve"
       id="flowRoot5055-9"
       style="font-size:24px;font-style:normal;font-variant:normal;font-weight:bold;font-stretch:normal;text-align:center;line-height:126.99999808999999000%;letter-spacing:0px;word-spacing:0px;text-anchor:middle;fill:#ffffff;fill-opacity:1;stroke:none;display:inline;font-family:Open Sans;-inkscape-font-specification:Open Sans Bold"><flowRegion
         id="flowRegion5057-5"><rect
           id="rect5059-5"
           width="154"
           height="44"
           x="628"
           y="759.18115"
           style="font-size:24px;font-weight:bold;text-align:center;line-height:126.99999808999999000%;text-anchor:middle;-inkscape-font-specification:Open Sans Bold;fill:#ffffff;fill-opacity:1" /></flowRegion><flowPara
         id="flowPara5061-9">JAVASCRIPT</flowPara></flowRoot>    <path
       style="fill:#ffffff;fill-opacity:1;stroke:none;display:inline"
       d="m 202.02726,413.08439 -88.6646,37.06466 -1.0296,0 0.061,0.42403 -0.7873,0.30271 0.7873,0 3.6944,35.00561 129.5448,0.72678 -3.6942,49.1169 -39.4873,10.47738 -44.6957,-11.93089 -1.4535,-27.55638 -38.7,-0.72677 6.662,55.83934 75.2196,23.07471 76.6731,-20.10701 12.6578,-113.91967 -85.4549,-0.36335 84.3041,-37.42805 1.1508,0 3.6943,-35.00556 -90.4533,-0.75705 m 0,0 -97.8985,-0.75703 4.4817,36.51964 93.3886,0"
       id="path4450"
       inkscape:connector-curvature="0"
       sodipodi:nodetypes="cccccccccccccccccccccccccc" />
    <path
       sodipodi:nodetypes="cccccccccccccccccc"
       inkscape:connector-curvature="0"
       id="path5001"
       d="m 202.02726,413.08439 -88.6646,37.06466 -1.0296,0 0.061,0.42403 -0.7873,0.30271 0.7873,0 3.6944,35.00561 86.3638,0.36336 m -0.4244,-73.16037 -93.3885,0 -4.4817,-36.51964 97.8985,0.75703 m 1.1506,208.32531 -78.9422,-23.81933 -6.662,-55.83934 38.7,0.72677 1.4535,27.55638 44.6957,11.93089"
       style="fill:#ededed;fill-opacity:1;stroke:none;display:inline" />
    <path
       style="fill:#ffffff;fill-opacity:1;stroke:none;display:inline"
       d="m 627.09736,425.28769 115.9555,-0.3854 -12.4508,148.57953 -101.3865,27.16641 0,-49.57784 53.2045,-14.25611 6.6794,-64.59892 -62.0614,1.73422 z"
       id="path5033"
       inkscape:connector-curvature="0"
       sodipodi:nodetypes="ccccccccc" />
    <path
       style="fill:#ffffff;fill-opacity:1;stroke:none;display:inline"
       d="m 628.69816,375.04541 120.2391,0.19264 4.9803,-48.97312 -124.5079,0 z"
       id="path5031"
       inkscape:connector-curvature="0"
       sodipodi:nodetypes="ccccc" />
    <path
       sodipodi:nodetypes="cccccccccccccccc"
       inkscape:connector-curvature="0"
       id="path5025"
       d="m 628.99596,425.27628 -65.7348,0 -3.5341,-49.47781 69.6224,-0.35342 0.3533,-49.1244 c -40.9958,0 -122.9877,0 -122.9877,0 l 13.4297,147.72664 108.8512,0 z m 1.1719,125.61977 -54.8757,-14.70391 -4.9478,-37.40594 -48.7859,0.70681 6.3614,74.21675 101.6157,27.04899 z"
       style="fill:#e1e1e1;fill-opacity:1;stroke:none;display:inline" />
  </g>
</svg>
